<svg xmlns="http://www.w3.org/2000/svg" width="1006.563" height="1006.563" viewBox="0 0 1006.563 1006.563">
  <g id="Group_2041" data-name="Group 2041" transform="translate(-38.437 -19.719)">
    <g id="Group_2040" data-name="Group 2040" transform="translate(-888.304 -22.594)">
      <path id="Path_2858" data-name="Path 2858" d="M1543.741,545.595h0l-.7-25.759-1.951-25.5-3.167-25.151-4.488-24.768-5.644-24.291-6.77-23.91-7.931-23.371-9.058-22.8-10.092-22.325-11.159-21.694-12.131-21.092-13.071-20.4L1443.469,244.8l-14.923-19.045L1412.711,207.5,1396.059,190l-17.5-16.651L1360.3,157.508l-19.045-14.923-19.736-14.11-20.4-13.071-21.092-12.131-21.695-11.159L1236.01,82.023l-22.8-9.058-23.371-7.931-23.91-6.771-24.291-5.643-24.769-4.489-25.15-3.168-25.5-1.951-25.759-.7V75.375l24.208.572,23.825,1.82,23.472,3.04,23.089,4.1,22.741,5.257,22.231,6.381,21.82,7.414,21.378,8.413L1244,121.82l20.271,10.383,19.672,11.356,19.106,12.3L1321.5,168.93l17.753,14.02,17.094,14.8,16.338,15.62,15.62,16.337,14.8,17.094,14.019,17.753L1430.2,283l12.3,19.107,11.356,19.672,10.383,20.272,9.448,20.777,8.413,21.378,7.415,21.82,6.382,22.232L1501.148,451l4.1,23.089,3.04,23.472,1.82,23.824.573,24.208.1,2,.276,1.871.445,1.744.6,1.614.749,1.485.882,1.357,1,1.227,1.112,1.1,1.208.969,1.293.839,1.366.71,1.428.581,1.474.453,1.511.323,1.536.193,1.548.066,1.548-.066,1.536-.193,1.511-.323,1.475-.453,1.428-.581,1.366-.71,1.293-.839,1.208-.969,1.111-1.1,1-1.227.882-1.357.749-1.485.6-1.614.445-1.744.276-1.871" transform="translate(389.562 0)" fill="#fff"/>
      <path id="Path_2859" data-name="Path 2859" d="M1053.255,659.313h0l25.759-.7,25.5-1.951,25.15-3.169,24.769-4.488,24.291-5.643,23.91-6.772,23.371-7.929,22.8-9.059,22.325-10.093,21.695-11.159,21.092-12.131,20.4-13.071,19.736-14.11,19.045-14.924,18.255-15.835,17.5-16.65,16.652-17.5,15.835-18.255,14.923-19.045,14.109-19.736,13.071-20.4,12.131-21.092,11.159-21.695,10.092-22.324,9.058-22.8,7.931-23.371,6.77-23.91,5.644-24.29,4.488-24.768,3.167-25.15,1.951-25.5.7-25.759h-33.061l-.573,24.209-1.82,23.823-3.04,23.472-4.1,23.089-5.256,22.74-6.382,22.231-7.415,21.82-8.413,21.378-9.448,20.776-10.383,20.272-11.356,19.672L1443,418.62l-13.076,18.447L1415.9,454.82l-14.8,17.094-15.62,16.339-16.338,15.619-17.094,14.8-17.753,14.021-18.446,13.076-19.106,12.3-19.672,11.356L1256.8,579.8l-20.778,9.448-21.378,8.414-21.82,7.413-22.231,6.383-22.741,5.256-23.089,4.1-23.472,3.041-23.825,1.82-24.208.572-2,.1-1.872.276-1.744.446-1.615.6-1.485.749-1.356.882-1.227,1-1.1,1.111-.968,1.208-.839,1.294-.71,1.366-.581,1.427-.453,1.474-.322,1.512-.193,1.536-.065,1.548.065,1.548.193,1.536.322,1.512.453,1.474.581,1.428.71,1.366.839,1.294.968,1.208,1.1,1.111,1.227,1,1.356.881,1.485.749,1.615.6,1.744.446,1.872.276" transform="translate(376.767 389.563)" fill="#fff"/>
      <path id="Path_2860" data-name="Path 2860" d="M926.741,168.827h0l.7,25.759,1.95,25.5,3.168,25.15,4.487,24.768,5.645,24.29,6.77,23.91,7.93,23.371,9.06,22.8L976.542,386.7l11.16,21.695,12.129,21.092,13.071,20.4,14.109,19.736,14.924,19.045,15.834,18.255,16.651,17.5,17.5,16.65,18.256,15.835,19.044,14.924,19.736,14.11,20.4,13.071,21.092,12.131,21.695,11.159,22.324,10.093,22.8,9.059,23.372,7.929,23.91,6.772,24.29,5.643,24.77,4.488,25.151,3.169,25.5,1.951,25.759.7V639.047l-24.208-.572-23.824-1.82-23.472-3.041-23.091-4.1-22.74-5.256-22.231-6.383-21.821-7.413-21.378-8.414-20.776-9.448-20.271-10.383-19.672-11.356-19.106-12.3-18.446-13.076-17.752-14.021-17.094-14.8L1097.8,501.048l-15.62-16.339-14.8-17.094-14.02-17.753-13.076-18.447-12.3-19.106-11.355-19.672-10.384-20.272L996.8,351.59l-8.414-21.378-7.413-21.82-6.382-22.231-5.257-22.74-4.1-23.089L962.2,216.86l-1.82-23.823-.573-24.209-.095-2-.276-1.872-.445-1.744-.6-1.615-.75-1.486-.882-1.356-1-1.227-1.112-1.1-1.208-.969-1.293-.839-1.366-.71-1.428-.581-1.475-.453-1.511-.323-1.536-.193-1.548-.066-1.548.066-1.536.193-1.511.323-1.474.453-1.428.581-1.366.71-1.292.839-1.209.969-1.111,1.1-1,1.227-.882,1.356-.749,1.486-.6,1.615-.445,1.744-.276,1.872" transform="translate(0 376.768)" fill="#fff"/>
      <path id="Path_2861" data-name="Path 2861" d="M1430.022,42.313h0l-25.759.7-25.5,1.951-25.151,3.168-24.77,4.489-24.29,5.643-23.91,6.771-23.372,7.931-22.8,9.058-22.324,10.092-21.695,11.159L1169.359,115.4l-20.4,13.071-19.736,14.11-19.044,14.923-18.256,15.836L1074.422,190l-16.651,17.5-15.834,18.256L1027.012,244.8,1012.9,264.534l-13.071,20.4L987.7,306.025l-11.16,21.694L966.45,350.044l-9.06,22.8-7.93,23.371-6.77,23.91-5.645,24.291-4.487,24.768-3.168,25.151-1.95,25.5-.7,25.759H959.8l.573-24.208,1.82-23.824,3.039-23.472,4.1-23.089,5.257-22.741,6.382-22.232,7.413-21.82L996.8,362.83l9.447-20.777,10.384-20.272,11.355-19.672,12.3-19.107,13.076-18.447,14.02-17.753,14.8-17.094,15.62-16.337,16.338-15.62,17.094-14.8,17.752-14.02,18.446-13.076,19.106-12.3,19.672-11.356,20.271-10.383,20.776-9.448,21.378-8.413,21.821-7.414,22.231-6.381,22.74-5.257,23.091-4.1,23.472-3.04,23.824-1.82,24.208-.572,2-.1L1433.9,75l1.745-.446,1.614-.6,1.485-.749,1.356-.882,1.227-1,1.1-1.111.968-1.208.839-1.294.71-1.366.581-1.427.453-1.474.322-1.512.193-1.535.065-1.548-.065-1.548-.193-1.536-.322-1.512-.453-1.474-.581-1.428-.71-1.366-.839-1.294-.968-1.208-1.1-1.112-1.227-1-1.356-.881-1.485-.749-1.614-.6-1.745-.445-1.872-.276" transform="translate(0 0)" fill="#fff"/>
      <path id="Path_2862" data-name="Path 2862" d="M1417.228,46.048c268.094,0,486.749,218.655,486.749,486.753s-218.655,486.748-486.749,486.748S930.476,800.89,930.476,532.8,1149.13,46.048,1417.228,46.048" transform="translate(12.795 12.795)" fill="#006e33" fill-rule="evenodd"/>
      <path id="Path_2863" data-name="Path 2863" d="M1284.751,84.72c173.832,0,315.6,141.767,315.6,315.6s-141.771,315.594-315.6,315.594-315.6-141.767-315.6-315.594,141.772-315.6,315.6-315.6" transform="translate(145.272 145.273)" fill="#fff" fill-rule="evenodd"/>
      <path id="Path_2864" data-name="Path 2864" d="M1736.682,421a34.118,34.118,0,0,1-15.4,1.093,31.115,31.115,0,0,1-12.808-5.377,37.668,37.668,0,0,1-9.807-10.511,54.731,54.731,0,0,1-6.436-14.472,55.468,55.468,0,0,1-2-10.347,59.833,59.833,0,0,1-.225-8.838,38.366,38.366,0,0,1,.943-6.74,16.717,16.717,0,0,1,1.452-4.12,5.93,5.93,0,0,1,2.589-2.359,28.7,28.7,0,0,1,5.6-2.089c1.686-.482,3.093-.828,4.244-1.058a13.728,13.728,0,0,1,2.925-.274,3.207,3.207,0,0,1,1.783.566,2.3,2.3,0,0,1,.836,1.275,7.1,7.1,0,0,1-.407,3.594,53.008,53.008,0,0,0-1.43,6.161,49.725,49.725,0,0,0-.757,8.568,38.563,38.563,0,0,0,1.668,10.821,25.489,25.489,0,0,0,2.912,6.709,16.551,16.551,0,0,0,4.151,4.461,11.445,11.445,0,0,0,5.143,2.054,13.57,13.57,0,0,0,5.917-.469,10.026,10.026,0,0,0,5.549-3.678,19.645,19.645,0,0,0,3.089-6.368,54.168,54.168,0,0,0,1.7-8.157c.4-2.987.863-6.085,1.332-9.245a77.75,77.75,0,0,1,2.08-9.458,35.406,35.406,0,0,1,3.877-8.8,29.488,29.488,0,0,1,6.687-7.4,30.732,30.732,0,0,1,10.736-5.178,31.2,31.2,0,0,1,14.047-1,27.61,27.61,0,0,1,11.635,4.842,33.622,33.622,0,0,1,8.846,9.551,53.125,53.125,0,0,1,7.351,20.734,52.424,52.424,0,0,1,.452,7.413,40.644,40.644,0,0,1-.54,6.386,13.215,13.215,0,0,1-1.066,3.912,6.034,6.034,0,0,1-1.071,1.491,7.207,7.207,0,0,1-1.35.9,15.764,15.764,0,0,1-2.266.978c-.929.3-2.111.664-3.523,1.076-1.549.438-2.89.792-3.992,1.018a15.659,15.659,0,0,1-2.806.358,2.912,2.912,0,0,1-1.744-.367,2.13,2.13,0,0,1-.916-1.261,7.3,7.3,0,0,1,.327-3.182c.372-1.518.752-3.333,1.089-5.5a42.925,42.925,0,0,0,.553-7.249,29.793,29.793,0,0,0-1.235-8.493,19.574,19.574,0,0,0-2.6-5.82,12.873,12.873,0,0,0-3.6-3.678,9.926,9.926,0,0,0-4.342-1.562,12.591,12.591,0,0,0-4.7.42,10.276,10.276,0,0,0-5.519,3.647,19.575,19.575,0,0,0-3.071,6.417,53.727,53.727,0,0,0-1.624,8.32c-.39,3.036-.841,6.13-1.333,9.329a92.33,92.33,0,0,1-2.036,9.528,35.246,35.246,0,0,1-3.854,8.9A27.9,27.9,0,0,1,1736.682,421M1640.22,278.795a2.228,2.228,0,0,1-1.425.735,3.6,3.6,0,0,1-2.062-.447,16.48,16.48,0,0,1-2.943-1.784,58.618,58.618,0,0,1-7.864-7.347,15.948,15.948,0,0,1-2-2.8,3.448,3.448,0,0,1-.536-2,2.205,2.205,0,0,1,.624-1.474l30.09-32.272-29.842-27.833-30.095,32.276a2.459,2.459,0,0,1-1.4.739,3.309,3.309,0,0,1-2.053-.42,17.474,17.474,0,0,1-2.938-1.779,49.321,49.321,0,0,1-4.1-3.487,46.958,46.958,0,0,1-3.749-3.842,16.376,16.376,0,0,1-2.023-2.841,3.6,3.6,0,0,1-.588-2.036,2.174,2.174,0,0,1,.624-1.469l70.292-75.378a2.227,2.227,0,0,1,1.417-.726,3.675,3.675,0,0,1,2.076.438,18.271,18.271,0,0,1,2.97,1.828,55.559,55.559,0,0,1,7.86,7.329,16.84,16.84,0,0,1,1.987,2.8,3.348,3.348,0,0,1,.558,2.018,2.4,2.4,0,0,1-.642,1.452l-27.324,29.3,29.842,27.833,27.329-29.3a2.3,2.3,0,0,1,1.425-.726,3.449,3.449,0,0,1,2.023.4,16.206,16.206,0,0,1,2.938,1.8,46.5,46.5,0,0,1,4.151,3.514,44.645,44.645,0,0,1,3.722,3.828,16.372,16.372,0,0,1,2,2.8,3.816,3.816,0,0,1,.58,2.031,2.214,2.214,0,0,1-.624,1.46Zm-140.6-117.4c-.328,1.368-.62,2.5-.921,3.443a19.984,19.984,0,0,1-.934,2.372,6.467,6.467,0,0,1-1.084,1.62,7.537,7.537,0,0,1-1.7,1.372,16.454,16.454,0,0,1-4.054,1.646,41.755,41.755,0,0,1-6.979,1.363,54.726,54.726,0,0,1-9.076.27,60.136,60.136,0,0,1-29.524-9.409,39.9,39.9,0,0,1-12.631-13.489,46.175,46.175,0,0,1-5.581-18.929,76.78,76.78,0,0,1,2.076-24.1,75.92,75.92,0,0,1,9.165-23.217A51.218,51.218,0,0,1,1452.585,69a43.374,43.374,0,0,1,18.07-7.254,53.664,53.664,0,0,1,20.853.912,49.248,49.248,0,0,1,8.378,2.731,47.863,47.863,0,0,1,7.152,3.691,38.414,38.414,0,0,1,5.651,4.191,19.745,19.745,0,0,1,3.279,3.567,7.576,7.576,0,0,1,1.08,2.2,6.9,6.9,0,0,1,.252,2.04,22.831,22.831,0,0,1-.265,2.8c-.155,1.062-.425,2.359-.783,3.9-.372,1.629-.761,3.009-1.106,4.147a10.893,10.893,0,0,1-1.24,2.66,3.789,3.789,0,0,1-1.341,1.328,2.012,2.012,0,0,1-1.429.2,5.851,5.851,0,0,1-2.775-2.151,51.473,51.473,0,0,0-4.168-4.359,40.4,40.4,0,0,0-6.382-4.837,31.142,31.142,0,0,0-9.6-3.726,23.96,23.96,0,0,0-22.048,5.426,35.4,35.4,0,0,0-7.971,10.383,61.405,61.405,0,0,0-5.373,14.95,61.721,61.721,0,0,0-1.819,16.68,32.343,32.343,0,0,0,2.917,12.587,23.224,23.224,0,0,0,7.081,8.608,29.553,29.553,0,0,0,10.887,4.771,32.84,32.84,0,0,0,10.237.956,42.8,42.8,0,0,0,7.9-1.341,57.7,57.7,0,0,0,5.616-1.837,6.3,6.3,0,0,1,3.311-.584,2.153,2.153,0,0,1,1.2.6,2.579,2.579,0,0,1,.549,1.514,13.631,13.631,0,0,1-.168,2.855C1500.382,157.81,1500.077,159.39,1499.617,161.395Zm-171.543-10.254a35.227,35.227,0,0,1,.73,4.027,10.723,10.723,0,0,1-.027,2.748,3.491,3.491,0,0,1-.69,1.673,2.293,2.293,0,0,1-1.249.761l-53.4,12.325a6.864,6.864,0,0,1-4.935-.549c-1.492-.774-2.5-2.368-3.063-4.78l-21.389-92.682q-.843-3.618.646-5.647a6.939,6.939,0,0,1,4.191-2.664l53.06-12.241a2.239,2.239,0,0,1,1.425.115,2.979,2.979,0,0,1,1.314,1.208,11.94,11.94,0,0,1,1.221,2.487,33.929,33.929,0,0,1,1.16,4.023,33.28,33.28,0,0,1,.681,3.948,10.893,10.893,0,0,1-.018,2.717,3.238,3.238,0,0,1-.663,1.651,2.025,2.025,0,0,1-1.217.761l-37.933,8.763,6,25.97,32.1-7.413a2.508,2.508,0,0,1,1.487.128,3.865,3.865,0,0,1,1.328,1.168,10.248,10.248,0,0,1,1.2,2.412,29.86,29.86,0,0,1,1.1,3.846,31.412,31.412,0,0,1,.712,4,9.089,9.089,0,0,1-.044,2.638,3.015,3.015,0,0,1-.687,1.58,2.5,2.5,0,0,1-1.288.743l-32.108,7.413,6.921,29.979,38.287-8.842a2.257,2.257,0,0,1,1.456.164,3.278,3.278,0,0,1,1.363,1.2,10.265,10.265,0,0,1,1.217,2.43A34.655,34.655,0,0,1,1328.073,151.141Zm-200.6,40.539a84.671,84.671,0,0,0-11.657-10.538,33.449,33.449,0,0,0-11.6-5.674,21.744,21.744,0,0,0-11.6.226c-3.885,1.106-7.793,3.487-11.75,7.178-3.979,3.713-6.63,7.594-7.9,11.582a25.522,25.522,0,0,0-.85,12.051,34.439,34.439,0,0,0,4.7,12.033,73.5,73.5,0,0,0,8.922,11.6,87.074,87.074,0,0,0,11.936,10.812,34.1,34.1,0,0,0,11.631,5.8,20.6,20.6,0,0,0,11.551-.226q5.769-1.719,11.768-7.294a28.1,28.1,0,0,0,7.9-11.538,24.4,24.4,0,0,0,.85-12.086,34.9,34.9,0,0,0-4.833-12.144A73.655,73.655,0,0,0,1127.471,191.68Zm16.211-16.733a81.723,81.723,0,0,1,14.091,20.044,48.812,48.812,0,0,1,5.041,20.163,43.448,43.448,0,0,1-4.289,19.539,60.974,60.974,0,0,1-13.95,18.367,67.518,67.518,0,0,1-18.517,12.733,38.182,38.182,0,0,1-18.481,3.341,43.414,43.414,0,0,1-18.8-6.236,87.45,87.45,0,0,1-19.327-16.092,77.12,77.12,0,0,1-13.769-19.743,48.49,48.49,0,0,1-4.943-19.986,43.472,43.472,0,0,1,4.284-19.575c2.965-6.4,7.665-12.551,13.972-18.437a67.148,67.148,0,0,1,18.265-12.542,38.457,38.457,0,0,1,18.468-3.4,43.9,43.9,0,0,1,18.8,6.072C1130.866,162.762,1137.221,168.029,1143.682,174.946ZM966.9,336.3a34.6,34.6,0,0,1,4.036,1.367,9.557,9.557,0,0,1,2.461,1.421,3.993,3.993,0,0,1,1.155,1.416,2.089,2.089,0,0,1,.128,1.438l-9.834,34.281,28.192,8.086,9.232-32.183a2.145,2.145,0,0,1,.774-1.146,3.435,3.435,0,0,1,1.682-.624,9.167,9.167,0,0,1,2.792.071c1.106.2,2.465.509,4.089.965a41.594,41.594,0,0,1,4.019,1.363,10.038,10.038,0,0,1,2.465,1.429,3.513,3.513,0,0,1,1.2,1.452,2.055,2.055,0,0,1,.106,1.4l-9.223,32.188,39.052,11.2a2.594,2.594,0,0,1,1.394.929,4.006,4.006,0,0,1,.6,2.062,15.834,15.834,0,0,1-.252,3.5,46.928,46.928,0,0,1-1.234,5.231,47.569,47.569,0,0,1-1.726,5.09,15.894,15.894,0,0,1-1.633,3.085,4.065,4.065,0,0,1-1.611,1.43,2.321,2.321,0,0,1-1.677.088L948.01,394.561q-3.579-1.009-4.625-3.3a6.878,6.878,0,0,1-.288-4.957l14.149-49.359a2.193,2.193,0,0,1,.819-1.177,3.993,3.993,0,0,1,1.757-.58,10.06,10.06,0,0,1,2.908.12A39.255,39.255,0,0,1,966.9,336.3Z" transform="translate(54.918 40.194)" fill="#fff" fill-rule="evenodd"/>
      <path id="Path_2865" data-name="Path 2865" d="M1619.136,240.958a54.037,54.037,0,0,0-11.776-9.343,32.274,32.274,0,0,0-12.8-4.284,28.92,28.92,0,0,0-13.18,1.806q-6.625,2.476-13.98,9.573l-9.608,9.285,53.4,55.3,9.718-9.374a46.617,46.617,0,0,0,9.847-12.808,26.351,26.351,0,0,0,2.757-12.737,31.371,31.371,0,0,0-3.82-13.339,62.214,62.214,0,0,0-10.555-14.078m9.582-9.971a69.044,69.044,0,0,1,13.2,18.406,40.586,40.586,0,0,1,4.129,18.079,39.8,39.8,0,0,1-4.559,17.521,67.756,67.756,0,0,1-13.547,17.415l-15.052,14.543a5.417,5.417,0,0,1-3.186,1.456c-1.314.142-2.647-.5-4.032-1.916l-61.207-63.38c-1.372-1.425-1.956-2.775-1.762-4.089a5.381,5.381,0,0,1,1.563-3.142l16.1-15.552q9.228-8.909,17.9-12.68a39.7,39.7,0,0,1,17.327-3.439,40.707,40.707,0,0,1,16.985,4.536A60.65,60.65,0,0,1,1628.718,230.987Zm-119.883,55.675-.057.044,13.432,50.355,28.475-19.212Zm80.552,43.372a10.165,10.165,0,0,1,2.062,1.885,1.878,1.878,0,0,1,.394,1.62,3.68,3.68,0,0,1-1.292,1.717,36.226,36.226,0,0,1-3.049,2.244c-1.292.872-2.376,1.536-3.2,2a9.925,9.925,0,0,1-1.978.885,2.353,2.353,0,0,1-1.306-.013,5.606,5.606,0,0,1-1.169-.58L1559.385,324.6l-34.046,22.956,6.545,24.226a4.127,4.127,0,0,1,.164,1.306,2.958,2.958,0,0,1-.456,1.337,7.251,7.251,0,0,1-1.425,1.562,30.76,30.76,0,0,1-2.793,2.067,29.251,29.251,0,0,1-3.116,1.854,3.651,3.651,0,0,1-2.049.5,1.823,1.823,0,0,1-1.323-.987,9.335,9.335,0,0,1-.983-2.607l-23.849-94.594a3.835,3.835,0,0,1-.093-1.6,3.341,3.341,0,0,1,.73-1.518,10.915,10.915,0,0,1,1.806-1.717c.778-.606,1.788-1.35,3.063-2.213,1.336-.9,2.492-1.615,3.417-2.151a11.156,11.156,0,0,1,2.372-1.1,3.428,3.428,0,0,1,1.775-.119,3.793,3.793,0,0,1,1.478.682Zm-105.9,34.148a19.323,19.323,0,0,0-4.24-6.665,14.419,14.419,0,0,0-5.935-3.7,18.35,18.35,0,0,0-7.594-.708,38.076,38.076,0,0,0-9.98,2.775l-14.574,5.886,13.052,32.276,17.685-7.143a26.847,26.847,0,0,0,6.9-3.934,17.34,17.34,0,0,0,4.292-5.165,14.357,14.357,0,0,0,1.766-6.333A17.126,17.126,0,0,0,1483.485,364.182Zm-22.376-39.442a20.244,20.244,0,0,0-3.346-5.647,11.953,11.953,0,0,0-4.745-3.39,13.88,13.88,0,0,0-6.337-.8,31.679,31.679,0,0,0-8.833,2.421l-12.587,5.09,11.994,29.665,13.861-5.59a21.151,21.151,0,0,0,7.165-4.359,14.908,14.908,0,0,0,3.452-5.253,14.123,14.123,0,0,0,.845-6.015A21.647,21.647,0,0,0,1461.109,324.74Zm34.9,33.569a29.572,29.572,0,0,1,2.124,8.4,24.6,24.6,0,0,1-3.169,14.835,30.249,30.249,0,0,1-4.792,6.218,39.248,39.248,0,0,1-6.612,5.258,54.05,54.05,0,0,1-8.856,4.448l-23.952,9.67a5.393,5.393,0,0,1-3.5.155c-1.274-.35-2.274-1.447-3.027-3.284l-33-81.693c-.743-1.828-.774-3.315-.105-4.448a5.322,5.322,0,0,1,2.628-2.323l20.827-8.418a51.775,51.775,0,0,1,14.056-3.89,25.482,25.482,0,0,1,10.582,1.009,20.117,20.117,0,0,1,8.223,5.174,27.558,27.558,0,0,1,5.731,9.033,25.827,25.827,0,0,1,1.717,6.568,21.269,21.269,0,0,1-.08,6.408,20.094,20.094,0,0,1-2,6.041,21.569,21.569,0,0,1-3.948,5.382,23.934,23.934,0,0,1,8.059-.243,23.052,23.052,0,0,1,7.621,2.456,24.265,24.265,0,0,1,6.6,5.266A27.155,27.155,0,0,1,1496.01,358.309Zm-130.332-19.823-.08.018-7.3,51.59,33.71-6.559Zm57.2,71.39a9.841,9.841,0,0,1,1.159,2.545,1.888,1.888,0,0,1-.261,1.642,3.783,3.783,0,0,1-1.863,1.08,36.412,36.412,0,0,1-3.687.867c-1.522.3-2.784.487-3.726.6a10.534,10.534,0,0,1-2.169.044,2.354,2.354,0,0,1-1.186-.518,6.668,6.668,0,0,1-.854-1l-12.906-22-40.322,7.838-3.435,24.855a3.839,3.839,0,0,1-.35,1.261,3.009,3.009,0,0,1-.938,1.053,7.661,7.661,0,0,1-1.921.889,34.34,34.34,0,0,1-3.381.81,26.331,26.331,0,0,1-3.594.487,3.593,3.593,0,0,1-2.084-.341,1.818,1.818,0,0,1-.837-1.425,9.154,9.154,0,0,1,.124-2.779l15.012-96.4a3.81,3.81,0,0,1,.527-1.514,3.272,3.272,0,0,1,1.261-1.1,10.467,10.467,0,0,1,2.337-.876c.956-.261,2.173-.553,3.682-.837,1.589-.319,2.925-.518,3.992-.655a11.749,11.749,0,0,1,2.606-.084,3.536,3.536,0,0,1,1.682.58,3.818,3.818,0,0,1,1.093,1.217Zm-106.486,18.8a1.9,1.9,0,0,1-.4,1.04,1.974,1.974,0,0,1-1.12.628,11.7,11.7,0,0,1-1.969.274,19,19,0,0,1-3.111-.062,20.284,20.284,0,0,1-2.988-.474,11.34,11.34,0,0,1-1.934-.611,1.7,1.7,0,0,1-1.159-1.912l7.493-85.712-.16-.018-42.6,83.017a2.736,2.736,0,0,1-.744.876,3.5,3.5,0,0,1-1.239.54,11.487,11.487,0,0,1-1.96.208c-.735,0-1.624-.018-2.629-.106a21,21,0,0,1-2.713-.394,11.066,11.066,0,0,1-1.89-.593,3.749,3.749,0,0,1-1.106-.748,1.955,1.955,0,0,1-.5-.907l-26.005-89.009-.075-.013-7.5,85.73a2.029,2.029,0,0,1-.407,1.031,1.917,1.917,0,0,1-1.129.642,12.8,12.8,0,0,1-2.013.266,22.471,22.471,0,0,1-3.138-.071,20.231,20.231,0,0,1-3.014-.469,11.327,11.327,0,0,1-1.908-.611,2,2,0,0,1-.929-.819,2.113,2.113,0,0,1-.159-1.08l7.917-90.527c.186-2.133.867-3.585,2.058-4.4a5.775,5.775,0,0,1,3.864-1.044l7.913.686a17.4,17.4,0,0,1,4.218.845,8.369,8.369,0,0,1,5.129,4.421,17.67,17.67,0,0,1,1.27,3.731l22.306,73.749.354.031,35.9-68.452a21.151,21.151,0,0,1,2.151-3.713,10.461,10.461,0,0,1,2.4-2.359,7.546,7.546,0,0,1,2.735-1.146,11.908,11.908,0,0,1,3.4-.115l8.272.717a7.5,7.5,0,0,1,2.155.527,4.86,4.86,0,0,1,1.646,1.23,5.14,5.14,0,0,1,1.009,1.916,6.879,6.879,0,0,1,.23,2.744ZM1180.013,319.9l-.076-.031-34.219,39.291,31.838,12.87Zm9.086,91.023a10.006,10.006,0,0,1-.416,2.771,1.891,1.891,0,0,1-1.111,1.226,3.724,3.724,0,0,1-2.155-.111,33.445,33.445,0,0,1-3.562-1.27c-1.447-.584-2.611-1.111-3.448-1.522a11.016,11.016,0,0,1-1.845-1.151,2.372,2.372,0,0,1-.708-1.075,5.922,5.922,0,0,1-.182-1.306L1176.822,383l-38.079-15.379L1122.337,386.6a4.093,4.093,0,0,1-1,.863,2.966,2.966,0,0,1-1.363.372,7.633,7.633,0,0,1-2.093-.31c-.85-.243-1.934-.62-3.267-1.151a28.4,28.4,0,0,1-3.279-1.553,3.606,3.606,0,0,1-1.562-1.421,1.822,1.822,0,0,1,.076-1.655,8.894,8.894,0,0,1,1.624-2.266l65.08-72.665a3.7,3.7,0,0,1,1.274-.982,3.277,3.277,0,0,1,1.66-.235,11.071,11.071,0,0,1,2.43.54c.938.3,2.125.721,3.554,1.288,1.5.606,2.731,1.168,3.691,1.642a11.4,11.4,0,0,1,2.24,1.35,3.429,3.429,0,0,1,1.093,1.4,3.8,3.8,0,0,1,.252,1.615Zm-87.615-37.6a18.719,18.719,0,0,1-1.443,2.116,6.63,6.63,0,0,1-1.336,1.252,2.928,2.928,0,0,1-1.261.483,1.992,1.992,0,0,1-1.213-.319l-37.441-22.5a5.393,5.393,0,0,1-2.23-2.708c-.478-1.23-.221-2.682.806-4.39l47.111-78.4a1.805,1.805,0,0,1,.819-.748,1.845,1.845,0,0,1,1.292-.08,11.345,11.345,0,0,1,1.982.686,20.412,20.412,0,0,1,2.8,1.434,21.94,21.94,0,0,1,2.593,1.8,12.13,12.13,0,0,1,1.518,1.425,2.027,2.027,0,0,1,.531,1.173,1.978,1.978,0,0,1-.274,1.084l-44,73.218,30.356,18.243a2,2,0,0,1,.836.929,2.692,2.692,0,0,1,.2,1.283,4.885,4.885,0,0,1-.452,1.722A17.165,17.165,0,0,1,1101.483,373.325Zm-49.966-55.763a28.606,28.606,0,0,1-10.029,7.647,26.344,26.344,0,0,1-11.409,2.279,29.738,29.738,0,0,1-11.794-2.722,44.559,44.559,0,0,1-11.263-7.223,49.34,49.34,0,0,1-10.714-13.206,35.683,35.683,0,0,1-2.581-5.541,15.264,15.264,0,0,1-.9-3.722,5.678,5.678,0,0,1,.553-2.638,14.028,14.028,0,0,1,2.155-3.116,21.453,21.453,0,0,1,1.957-2,7.066,7.066,0,0,1,1.5-1.036,1.986,1.986,0,0,1,1.217-.226,2.009,2.009,0,0,1,.987.5,6.166,6.166,0,0,1,1.412,2.934,45.329,45.329,0,0,0,1.916,5.417,49.787,49.787,0,0,0,3.687,7.01,34.283,34.283,0,0,0,6.647,7.546,25.471,25.471,0,0,0,6.665,4.266,18.362,18.362,0,0,0,6.727,1.562,13.69,13.69,0,0,0,6.346-1.31,16.953,16.953,0,0,0,5.616-4.337,13.127,13.127,0,0,0,3.249-6.678,19.354,19.354,0,0,0-.358-7.263,43.962,43.962,0,0,0-2.691-7.794q-1.772-4.016-3.687-8.267a86.617,86.617,0,0,1-3.328-8.6,35.062,35.062,0,0,1-1.717-8.865,26.014,26.014,0,0,1,1.1-9.019,25.676,25.676,0,0,1,5.342-9.077,26.032,26.032,0,0,1,8.927-6.851,22.93,22.93,0,0,1,10.046-2.031,28.088,28.088,0,0,1,10.507,2.5,40.062,40.062,0,0,1,10.144,6.532,41.365,41.365,0,0,1,4.612,4.775,44.824,44.824,0,0,1,3.722,5.266,32.656,32.656,0,0,1,2.523,5.041,13.283,13.283,0,0,1,1.044,3.412,5.708,5.708,0,0,1-.04,1.487,3.391,3.391,0,0,1-.429,1.062,10.468,10.468,0,0,1-.85,1.332c-.354.5-.863,1.111-1.487,1.828a23.627,23.627,0,0,1-1.686,1.792,13.442,13.442,0,0,1-1.438,1.128,2.452,2.452,0,0,1-1.186.376,1.579,1.579,0,0,1-.96-.376,6.332,6.332,0,0,1-1.274-2.54c-.434-1.337-1.022-2.868-1.726-4.691a38.121,38.121,0,0,0-3.045-5.873,26.234,26.234,0,0,0-5.28-6.076,21.032,21.032,0,0,0-6.161-3.868,14.6,14.6,0,0,0-5.735-1.067,11.018,11.018,0,0,0-5.09,1.323,14.283,14.283,0,0,0-4.284,3.368,12.757,12.757,0,0,0-3.186,6.621,18.933,18.933,0,0,0,.38,7.3,43.542,43.542,0,0,0,2.673,7.887c1.212,2.748,2.438,5.505,3.7,8.338,1.244,2.81,2.394,5.7,3.412,8.626a34.6,34.6,0,0,1,1.841,8.887,23.844,23.844,0,0,1-6.276,17.977Zm-80.37-39.614a2.021,2.021,0,0,1-1.022.443,1.919,1.919,0,0,1-1.244-.35,11.415,11.415,0,0,1-1.646-1.275,21.764,21.764,0,0,1-2.187-2.275,21.366,21.366,0,0,1-1.854-2.54,12.316,12.316,0,0,1-.987-1.859,1.938,1.938,0,0,1-.128-1.284,1.969,1.969,0,0,1,.62-.934l72.643-60.955a1.725,1.725,0,0,1,1.04-.425,2.256,2.256,0,0,1,1.3.407,14.458,14.458,0,0,1,1.668,1.292,20.342,20.342,0,0,1,2.1,2.186,21.464,21.464,0,0,1,1.876,2.549,11.57,11.57,0,0,1,.96,1.837,1.931,1.931,0,0,1,.128,1.283,1.961,1.961,0,0,1-.615.934Z" transform="translate(120.848 562.424)" fill="#fff" fill-rule="evenodd"/>
      <path id="Path_2866" data-name="Path 2866" d="M991.419,257.829l5.329,2.811,206.411-141-3.836-5.623-206.411,141-1.493,2.811,1.493-2.811-1.493,1.012" transform="translate(221.567 245.625)" fill="#006e33"/>
      <path id="Path_2867" data-name="Path 2867" d="M994.83,368.936l3.411-3.411V146.51h-6.822V365.525l3.411,3.411-3.411-3.411v3.411" transform="translate(221.567 356.944)" fill="#006e33"/>
      <path id="Path_2868" data-name="Path 2868" d="M1198.6,202.049v-6.822H992.19v6.822H1198.6" transform="translate(224.207 523.831)" fill="#006e33"/>
      <path id="Path_2869" data-name="Path 2869" d="M1248.641,198.637l-3.411-3.411h-206.4v6.822h206.4l3.411-3.411-3.411,3.411h3.411" transform="translate(383.979 523.831)" fill="#006e33"/>
      <path id="Path_2870" data-name="Path 2870" d="M1090.025,145.874l-5.329,2.811V367.7h6.822V148.686l-1.494-2.811,1.494,2.811v-1.8" transform="translate(541.101 354.768)" fill="#006e33"/>
      <path id="Path_2871" data-name="Path 2871" d="M1038.4,115.025v5.623l206.4,141,3.835-5.622-206.4-141h0l-1.918-1.306" transform="translate(382.494 244.614)" fill="#006e33"/>
      <path id="Path_2872" data-name="Path 2872" d="M1232.179,106.923,982.388,275.906l43.38,6.215,206.412-132.511,206.4,132.511,43.377-6.215" transform="translate(190.629 221.333)" fill="#006e33" fill-rule="evenodd"/>
      <path id="Path_2873" data-name="Path 2873" d="M1140.511,163.724l-3.412-3.411H1026.312v6.822H1137.1l3.412-3.411v-3.411H1137.1" transform="translate(341.097 404.227)" fill="#006e33"/>
      <path id="Path_2874" data-name="Path 2874" d="M1053.984,283.716l3.412-3.411V161.083h-6.822V280.305l3.41,3.411h3.412v-3.411" transform="translate(424.212 406.868)" fill="#006e33"/>
      <path id="Path_2875" data-name="Path 2875" d="M1025.541,190.662l3.412,3.411H1139.74v-6.822H1028.953l-3.412,3.411v3.411h3.412" transform="translate(338.456 496.511)" fill="#006e33"/>
      <path id="Path_2876" data-name="Path 2876" d="M1028.953,160.312l-3.412,3.411V282.946h6.822V163.724l-3.41-3.411h-3.412v3.411" transform="translate(338.456 404.227)" fill="#006e33"/>
      <path id="Path_2877" data-name="Path 2877" d="M1053.5,163.724l-3.411-3.411H996.885v6.822h53.208l3.411-3.411v-3.411h-3.411" transform="translate(240.288 404.227)" fill="#006e33"/>
      <path id="Path_2878" data-name="Path 2878" d="M1011.547,219.358l3.411-3.411V161.083h-6.822v54.864l3.411,3.411h3.411v-3.411" transform="translate(278.833 406.868)" fill="#006e33"/>
      <path id="Path_2879" data-name="Path 2879" d="M996.114,176.12l3.411,3.411h53.208v-6.822H999.525l-3.411,3.411v3.411h3.411" transform="translate(237.647 446.694)" fill="#006e33"/>
      <path id="Path_2880" data-name="Path 2880" d="M999.525,160.312l-3.411,3.411v54.864h6.822V163.724l-3.411-3.411h-3.411v3.411" transform="translate(237.647 404.227)" fill="#006e33"/>
      <path id="Path_2881" data-name="Path 2881" d="M1008.141,163.724l3.411,3.411h53.208v-6.822h-53.208l-3.411,3.411,3.411-3.411h-3.411" transform="translate(278.85 404.227)" fill="#006e33"/>
      <path id="Path_2882" data-name="Path 2882" d="M1011.552,219.358l3.411-3.411V161.083h-6.821v54.864l3.411,3.411-3.411-3.411v3.411" transform="translate(278.85 406.868)" fill="#006e33"/>
      <path id="Path_2883" data-name="Path 2883" d="M1065.531,176.12l-3.412-3.411h-53.208v6.822h53.208l3.412-3.411-3.412,3.411h3.412" transform="translate(281.491 446.694)" fill="#006e33"/>
      <path id="Path_2884" data-name="Path 2884" d="M1023.574,160.312l-3.411,3.411v54.864h6.822V163.724l-3.412-3.411,3.412,3.411v-3.411" transform="translate(320.036 404.227)" fill="#006e33"/>
      <path id="Path_2885" data-name="Path 2885" d="M1053.5,188.518l-3.411-3.411H996.885v6.822h53.208l3.411-3.411-3.411,3.411h3.411" transform="translate(240.288 489.163)" fill="#006e33"/>
      <path id="Path_2886" data-name="Path 2886" d="M1011.547,172.709l-3.411,3.411v54.866h6.822V176.12l-3.411-3.411,3.411,3.411v-3.411" transform="translate(278.833 446.694)" fill="#006e33"/>
      <path id="Path_2887" data-name="Path 2887" d="M996.114,176.12l3.411,3.411h53.208v-6.822H999.525l-3.411,3.411,3.411-3.411h-3.411" transform="translate(237.647 446.694)" fill="#006e33"/>
      <path id="Path_2888" data-name="Path 2888" d="M999.525,231.756l3.411-3.411V173.48h-6.822v54.866l3.411,3.411-3.411-3.411v3.411" transform="translate(237.647 449.335)" fill="#006e33"/>
      <path id="Path_2889" data-name="Path 2889" d="M1008.141,188.518l3.411,3.411h53.208v-6.822h-53.208l-3.411,3.411v3.411h3.411" transform="translate(278.85 489.163)" fill="#006e33"/>
      <path id="Path_2890" data-name="Path 2890" d="M1011.552,172.709l-3.411,3.411v54.866h6.821V176.12l-3.411-3.411h-3.411v3.411" transform="translate(278.85 446.694)" fill="#006e33"/>
      <path id="Path_2891" data-name="Path 2891" d="M1065.531,176.12l-3.412-3.411h-53.208v6.822h53.208l3.412-3.411v-3.411h-3.412" transform="translate(281.491 446.694)" fill="#006e33"/>
      <path id="Path_2892" data-name="Path 2892" d="M1023.574,231.756l3.412-3.411V173.48h-6.822v54.866l3.411,3.411h3.412v-3.411" transform="translate(320.036 449.335)" fill="#006e33"/>
      <path id="Path_2893" data-name="Path 2893" d="M1113.343,163.724l-3.411-3.411h-53.207v6.822h53.207l3.411-3.411v-3.411h-3.411" transform="translate(445.282 404.227)" fill="#006e33"/>
      <path id="Path_2894" data-name="Path 2894" d="M1071.387,219.358l3.411-3.411V161.083h-6.822v54.864l3.411,3.411h3.411v-3.411" transform="translate(483.826 406.868)" fill="#006e33"/>
      <path id="Path_2895" data-name="Path 2895" d="M1055.954,176.12l3.41,3.411h53.207v-6.822h-53.207l-3.41,3.411v3.411h3.41" transform="translate(442.641 446.694)" fill="#006e33"/>
      <path id="Path_2896" data-name="Path 2896" d="M1059.364,160.312l-3.41,3.411v54.864h6.821V163.724l-3.411-3.411h-3.41v3.411" transform="translate(442.641 404.227)" fill="#006e33"/>
      <path id="Path_2897" data-name="Path 2897" d="M1067.982,163.724l3.412,3.411H1124.6v-6.822h-53.205l-3.412,3.411,3.412-3.411h-3.412" transform="translate(483.845 404.227)" fill="#006e33"/>
      <path id="Path_2898" data-name="Path 2898" d="M1071.394,219.358l3.411-3.411V161.083h-6.822v54.864l3.412,3.411-3.412-3.411v3.411" transform="translate(483.845 406.868)" fill="#006e33"/>
      <path id="Path_2899" data-name="Path 2899" d="M1125.369,176.12l-3.411-3.411h-53.205v6.822h53.205l3.411-3.411-3.411,3.411h3.411" transform="translate(486.486 446.694)" fill="#006e33"/>
      <path id="Path_2900" data-name="Path 2900" d="M1083.415,160.312,1080,163.724v54.864h6.822V163.724l-3.411-3.411,3.411,3.411v-3.411" transform="translate(525.028 404.227)" fill="#006e33"/>
      <path id="Path_2901" data-name="Path 2901" d="M1113.343,188.518l-3.411-3.411h-53.207v6.822h53.207l3.411-3.411-3.411,3.411h3.411" transform="translate(445.282 489.163)" fill="#006e33"/>
      <path id="Path_2902" data-name="Path 2902" d="M1071.387,172.709l-3.411,3.411v54.866h6.822V176.12l-3.411-3.411,3.411,3.411v-3.411" transform="translate(483.826 446.694)" fill="#006e33"/>
      <path id="Path_2903" data-name="Path 2903" d="M1055.954,176.12l3.41,3.411h53.207v-6.822h-53.207l-3.41,3.411,3.41-3.411h-3.41" transform="translate(442.641 446.694)" fill="#006e33"/>
      <path id="Path_2904" data-name="Path 2904" d="M1059.364,231.756l3.411-3.411V173.48h-6.821v54.866l3.41,3.411-3.41-3.411v3.411" transform="translate(442.641 449.335)" fill="#006e33"/>
      <path id="Path_2905" data-name="Path 2905" d="M1067.982,188.518l3.412,3.411H1124.6v-6.822h-53.205l-3.412,3.411v3.411h3.412" transform="translate(483.845 489.163)" fill="#006e33"/>
      <path id="Path_2906" data-name="Path 2906" d="M1071.394,172.709l-3.412,3.411v54.866h6.822V176.12l-3.411-3.411h-3.412v3.411" transform="translate(483.845 446.694)" fill="#006e33"/>
      <path id="Path_2907" data-name="Path 2907" d="M1125.369,176.12l-3.411-3.411h-53.205v6.822h53.205l3.411-3.411v-3.411h-3.411" transform="translate(486.486 446.694)" fill="#006e33"/>
      <path id="Path_2908" data-name="Path 2908" d="M1083.415,231.756l3.411-3.411V173.48H1080v54.866l3.411,3.411h3.411v-3.411" transform="translate(525.028 449.335)" fill="#006e33"/>
      <path id="Path_2909" data-name="Path 2909" d="M981.042,150.956l10.191,28.291,31.838.345-25.53,17.836,9.478,28.5-25.977-17.267-25.976,17.267,9.48-28.5-25.538-17.836,31.84-.345" transform="translate(42.024 372.177)" fill="#fff" fill-rule="evenodd"/>
    </g>
  </g>
</svg>
