<svg xmlns="http://www.w3.org/2000/svg" width="3690" height="1006.564" viewBox="0 0 3690 1006.564">
  <g id="Group_1" data-name="Group 1" transform="translate(-19 -418)">
    <g id="Group_2041" data-name="Group 2041" transform="translate(-19.436 398.282)">
      <g id="Group_2040" data-name="Group 2040" transform="translate(-888.304 -22.594)">
        <path id="Path_2858" data-name="Path 2858" d="M1543.74,545.595h0l-.7-25.759-1.951-25.5-3.167-25.151-4.488-24.768-5.644-24.291-6.77-23.91-7.931-23.371-9.058-22.8-10.092-22.325-11.159-21.694-12.131-21.092-13.071-20.4L1443.47,244.8l-14.923-19.045L1412.71,207.5,1396.06,190l-17.5-16.651-18.26-15.841-19.045-14.923-19.736-14.11-20.4-13.071-21.092-12.131-21.695-11.159L1236.01,82.023l-22.8-9.058-23.371-7.931-23.91-6.771-24.291-5.643-24.769-4.489-25.15-3.168-25.5-1.951-25.759-.7V75.375l24.208.572,23.825,1.82,23.472,3.04,23.089,4.1,22.741,5.257,22.231,6.381,21.82,7.414,21.378,8.413L1244,121.82l20.271,10.383,19.672,11.356,19.106,12.3L1321.5,168.93l17.753,14.02,17.094,14.8,16.338,15.62,15.62,16.337,14.8,17.094,14.019,17.753L1430.2,283l12.3,19.107,11.356,19.672,10.383,20.272,9.448,20.777,8.413,21.378,7.415,21.82,6.382,22.232L1501.15,451l4.1,23.089,3.04,23.472,1.82,23.824.573,24.208.1,2,.276,1.871.445,1.744.6,1.614.749,1.485.882,1.357,1,1.227,1.112,1.1,1.208.969,1.293.839,1.366.71,1.428.581,1.474.453,1.511.323,1.536.193,1.548.066,1.548-.066,1.536-.193,1.511-.323,1.475-.453,1.428-.581,1.366-.71,1.293-.839,1.208-.969,1.111-1.1,1-1.227.882-1.357.749-1.485.6-1.614.445-1.744.276-1.871" transform="translate(389.562)" fill="#fff"/>
        <path id="Path_2859" data-name="Path 2859" d="M1053.26,659.313h0l25.759-.7,25.5-1.951,25.15-3.169,24.769-4.488,24.291-5.643,23.91-6.772,23.371-7.929,22.8-9.059,22.325-10.093,21.695-11.159,21.092-12.131,20.4-13.071,19.736-14.11,19.045-14.924,18.255-15.835,17.5-16.65,16.652-17.5,15.835-18.255,14.923-19.045,14.109-19.736,13.071-20.4,12.131-21.092,11.159-21.7,10.092-22.324,9.058-22.8,7.931-23.371,6.77-23.91,5.644-24.29,4.488-24.768,3.167-25.15,1.951-25.5.7-25.759h-33.061l-.573,24.209-1.82,23.823-3.04,23.472-4.1,23.089-5.256,22.74-6.382,22.231-7.415,21.82-8.413,21.378-9.448,20.776-10.383,20.272-11.356,19.672L1443,418.62l-13.076,18.447L1415.9,454.82l-14.8,17.094-15.62,16.339-16.338,15.619-17.094,14.8-17.753,14.021-18.446,13.076-19.106,12.3-19.672,11.356L1256.8,579.8l-20.778,9.448-21.378,8.414-21.82,7.413-22.231,6.383-22.741,5.256-23.089,4.1-23.472,3.041-23.825,1.82-24.208.572-2,.1-1.872.276-1.744.446-1.615.6-1.485.749-1.356.882-1.227,1-1.1,1.111-.968,1.208-.839,1.294-.71,1.366-.581,1.427-.453,1.474-.322,1.512-.193,1.536-.065,1.548.065,1.548.193,1.536.322,1.512.453,1.474.581,1.428.71,1.366.839,1.294.968,1.208,1.1,1.111,1.227,1,1.356.881,1.485.749,1.615.6,1.744.446,1.872.276" transform="translate(376.767 389.563)" fill="#fff"/>
        <path id="Path_2860" data-name="Path 2860" d="M926.741,168.827h0l.7,25.759,1.95,25.5,3.168,25.15L937.046,270l5.645,24.29,6.77,23.91,7.93,23.371,9.06,22.8L976.542,386.7l11.16,21.7,12.129,21.092,13.071,20.4,14.109,19.736,14.924,19.045,15.834,18.255,16.651,17.5,17.5,16.65,18.256,15.835,19.044,14.924,19.736,14.11,20.4,13.071,21.092,12.131,21.695,11.159,22.324,10.093,22.8,9.059,23.372,7.929,23.91,6.772,24.29,5.643,24.77,4.488,25.151,3.169,25.5,1.951,25.759.7v-33.06l-24.208-.572-23.824-1.82-23.472-3.041-23.091-4.1-22.74-5.256-22.231-6.383-21.821-7.413-21.378-8.414-20.776-9.448-20.271-10.383-19.672-11.356-19.106-12.3-18.446-13.076-17.752-14.021-17.094-14.8L1097.8,501.048l-15.62-16.339-14.8-17.094-14.02-17.753-13.076-18.447-12.3-19.106-11.355-19.672-10.384-20.272L996.8,351.59l-8.414-21.378-7.413-21.82-6.382-22.231-5.257-22.74-4.1-23.089L962.2,216.86l-1.82-23.823-.573-24.209-.095-2-.276-1.872-.445-1.744-.6-1.615-.75-1.486-.882-1.356-1-1.227-1.112-1.1-1.208-.969-1.293-.839-1.366-.71-1.428-.581-1.475-.453-1.511-.323-1.536-.193-1.548-.066-1.548.066-1.536.193-1.511.323-1.474.453-1.428.581-1.366.71-1.292.839-1.209.969-1.111,1.1-1,1.227-.882,1.356-.749,1.486-.6,1.615-.445,1.744-.276,1.872" transform="translate(0 376.768)" fill="#fff"/>
        <path id="Path_2861" data-name="Path 2861" d="M1430.02,42.313h0l-25.759.7-25.5,1.951-25.151,3.168-24.77,4.489-24.29,5.643-23.91,6.771-23.372,7.931-22.8,9.058-22.324,10.092-21.695,11.159L1169.36,115.4l-20.4,13.071-19.736,14.11L1110.18,157.5l-18.256,15.836L1074.42,190l-16.651,17.5-15.834,18.256L1027.01,244.8l-14.11,19.734-13.071,20.4L987.7,306.025l-11.16,21.694-10.09,22.325-9.06,22.8-7.93,23.371-6.77,23.91-5.645,24.291-4.487,24.768-3.168,25.151-1.95,25.5-.7,25.759H959.8l.573-24.208,1.82-23.824,3.039-23.472,4.1-23.089,5.257-22.741,6.382-22.232,7.413-21.82L996.8,362.83l9.447-20.777,10.384-20.272,11.355-19.672,12.3-19.107,13.076-18.447,14.02-17.753,14.8-17.094,15.62-16.337,16.338-15.62,17.094-14.8,17.752-14.02,18.446-13.076,19.106-12.3L1206.21,132.2l20.271-10.383,20.776-9.448,21.378-8.413,21.821-7.414,22.231-6.381,22.74-5.257,23.091-4.1,23.472-3.04,23.824-1.82,24.208-.572,2-.1L1433.9,75l1.745-.446,1.614-.6,1.485-.749,1.356-.882,1.227-1,1.1-1.111L1443.4,69l.839-1.294.71-1.366.581-1.427.453-1.474.322-1.512.193-1.535.065-1.548-.065-1.548-.193-1.536-.322-1.512-.453-1.474-.581-1.428-.71-1.366-.839-1.294-.968-1.208-1.1-1.112-1.227-1-1.356-.881-1.485-.749-1.614-.6-1.745-.445-1.872-.276" fill="#fff"/>
        <path id="Path_2862" data-name="Path 2862" d="M1417.23,46.048c268.094,0,486.749,218.655,486.749,486.753s-218.655,486.748-486.749,486.748S930.476,800.89,930.476,532.8,1149.13,46.048,1417.23,46.048" transform="translate(12.795 12.795)" fill="#006e33" fill-rule="evenodd"/>
        <path id="Path_2863" data-name="Path 2863" d="M1284.75,84.72c173.832,0,315.6,141.767,315.6,315.6s-141.771,315.594-315.6,315.594S969.15,574.147,969.15,400.32s141.772-315.6,315.6-315.6" transform="translate(145.272 145.273)" fill="#fff" fill-rule="evenodd"/>
        <path id="Path_2864" data-name="Path 2864" d="M1736.68,421a34.118,34.118,0,0,1-15.4,1.093,31.115,31.115,0,0,1-12.808-5.377,37.667,37.667,0,0,1-9.807-10.511,54.733,54.733,0,0,1-6.436-14.472,55.461,55.461,0,0,1-2-10.347,59.83,59.83,0,0,1-.225-8.838,38.38,38.38,0,0,1,.943-6.74,16.72,16.72,0,0,1,1.452-4.12,5.931,5.931,0,0,1,2.589-2.359,28.7,28.7,0,0,1,5.6-2.089c1.686-.482,3.093-.828,4.244-1.058a13.731,13.731,0,0,1,2.925-.274,3.207,3.207,0,0,1,1.783.566,2.3,2.3,0,0,1,.836,1.275,7.1,7.1,0,0,1-.407,3.594,53.011,53.011,0,0,0-1.43,6.161,49.745,49.745,0,0,0-.757,8.568,38.564,38.564,0,0,0,1.668,10.821,25.485,25.485,0,0,0,2.912,6.709,16.55,16.55,0,0,0,4.151,4.461,11.445,11.445,0,0,0,5.143,2.054,13.57,13.57,0,0,0,5.917-.469,10.026,10.026,0,0,0,5.549-3.678,19.647,19.647,0,0,0,3.089-6.368,54.2,54.2,0,0,0,1.7-8.157c.4-2.987.863-6.085,1.332-9.245a77.77,77.77,0,0,1,2.08-9.458,35.4,35.4,0,0,1,3.877-8.8,29.488,29.488,0,0,1,6.687-7.4,30.731,30.731,0,0,1,10.736-5.178,31.2,31.2,0,0,1,14.047-1,27.61,27.61,0,0,1,11.635,4.842,33.623,33.623,0,0,1,8.846,9.551,53.128,53.128,0,0,1,7.351,20.734,52.393,52.393,0,0,1,.452,7.413,40.672,40.672,0,0,1-.54,6.386,13.215,13.215,0,0,1-1.066,3.912,6.03,6.03,0,0,1-1.071,1.491,7.2,7.2,0,0,1-1.35.9,15.771,15.771,0,0,1-2.266.978c-.929.3-2.111.664-3.523,1.076-1.549.438-2.89.792-3.992,1.018a15.661,15.661,0,0,1-2.806.358,2.912,2.912,0,0,1-1.744-.367,2.13,2.13,0,0,1-.916-1.261,7.3,7.3,0,0,1,.327-3.182c.372-1.518.752-3.333,1.089-5.5a42.945,42.945,0,0,0,.553-7.249,29.8,29.8,0,0,0-1.236-8.5,19.572,19.572,0,0,0-2.6-5.816,12.872,12.872,0,0,0-3.6-3.678,9.926,9.926,0,0,0-4.342-1.562,12.59,12.59,0,0,0-4.7.42,10.276,10.276,0,0,0-5.519,3.647,19.574,19.574,0,0,0-3.071,6.417,53.73,53.73,0,0,0-1.624,8.32c-.39,3.036-.841,6.13-1.333,9.329a92.378,92.378,0,0,1-2.036,9.528,35.238,35.238,0,0,1-3.854,8.9A27.9,27.9,0,0,1,1736.68,421m-96.46-142.2a2.228,2.228,0,0,1-1.425.735,3.6,3.6,0,0,1-2.062-.447,16.481,16.481,0,0,1-2.943-1.784,58.621,58.621,0,0,1-7.864-7.347,15.944,15.944,0,0,1-2-2.8,3.448,3.448,0,0,1-.536-2,2.206,2.206,0,0,1,.624-1.474l30.09-32.272-29.842-27.833-30.095,32.276a2.458,2.458,0,0,1-1.4.739,3.309,3.309,0,0,1-2.053-.42,17.47,17.47,0,0,1-2.938-1.779,49.324,49.324,0,0,1-4.1-3.487,46.953,46.953,0,0,1-3.749-3.842,16.383,16.383,0,0,1-2.023-2.841,3.6,3.6,0,0,1-.588-2.036,2.174,2.174,0,0,1,.624-1.469l70.292-75.378a2.227,2.227,0,0,1,1.417-.726,3.675,3.675,0,0,1,2.076.438,18.27,18.27,0,0,1,2.97,1.828,55.553,55.553,0,0,1,7.86,7.329,16.849,16.849,0,0,1,1.987,2.8,3.348,3.348,0,0,1,.558,2.018,2.4,2.4,0,0,1-.642,1.452l-27.324,29.3,29.842,27.833,27.329-29.3a2.3,2.3,0,0,1,1.425-.726,3.449,3.449,0,0,1,2.023.4,16.2,16.2,0,0,1,2.938,1.8,46.48,46.48,0,0,1,4.151,3.514,44.648,44.648,0,0,1,3.722,3.828,16.376,16.376,0,0,1,2,2.8,3.817,3.817,0,0,1,.58,2.031,2.214,2.214,0,0,1-.624,1.46Zm-140.6-117.4c-.328,1.368-.62,2.5-.921,3.443a19.965,19.965,0,0,1-.934,2.372,6.47,6.47,0,0,1-1.084,1.62,7.543,7.543,0,0,1-1.7,1.372,16.457,16.457,0,0,1-4.054,1.646,41.762,41.762,0,0,1-6.979,1.363,54.729,54.729,0,0,1-9.076.27,60.136,60.136,0,0,1-29.524-9.409,39.9,39.9,0,0,1-12.631-13.489,46.175,46.175,0,0,1-5.581-18.929,76.784,76.784,0,0,1,2.076-24.1,75.921,75.921,0,0,1,9.165-23.217A51.216,51.216,0,0,1,1452.58,69a43.377,43.377,0,0,1,18.07-7.254,53.664,53.664,0,0,1,20.853.912,49.25,49.25,0,0,1,8.378,2.731,47.857,47.857,0,0,1,7.152,3.691,38.421,38.421,0,0,1,5.651,4.191,19.751,19.751,0,0,1,3.279,3.567,7.576,7.576,0,0,1,1.08,2.2,6.9,6.9,0,0,1,.252,2.04,22.85,22.85,0,0,1-.265,2.8c-.155,1.062-.425,2.359-.783,3.9-.372,1.629-.761,3.009-1.106,4.147a10.9,10.9,0,0,1-1.24,2.66,3.789,3.789,0,0,1-1.341,1.328,2.012,2.012,0,0,1-1.429.2,5.85,5.85,0,0,1-2.775-2.151,51.472,51.472,0,0,0-4.168-4.359,40.4,40.4,0,0,0-6.382-4.837,31.144,31.144,0,0,0-9.6-3.726,23.96,23.96,0,0,0-22.048,5.426,35.4,35.4,0,0,0-7.971,10.383,61.4,61.4,0,0,0-5.373,14.95,61.725,61.725,0,0,0-1.819,16.68,32.346,32.346,0,0,0,2.917,12.587,23.224,23.224,0,0,0,7.081,8.608,29.554,29.554,0,0,0,10.887,4.771,32.841,32.841,0,0,0,10.237.956,42.8,42.8,0,0,0,7.9-1.341,57.7,57.7,0,0,0,5.616-1.837,6.3,6.3,0,0,1,3.311-.584,2.152,2.152,0,0,1,1.2.6,2.578,2.578,0,0,1,.549,1.514,13.633,13.633,0,0,1-.168,2.855,48.593,48.593,0,0,1-.905,4.787Zm-171.543-10.254a35.243,35.243,0,0,1,.73,4.027,10.724,10.724,0,0,1-.027,2.748,3.492,3.492,0,0,1-.69,1.673,2.292,2.292,0,0,1-1.249.761l-53.4,12.325a6.864,6.864,0,0,1-4.935-.549c-1.492-.774-2.5-2.368-3.063-4.78l-21.389-92.682q-.843-3.618.646-5.647a6.939,6.939,0,0,1,4.191-2.664l53.06-12.241a2.239,2.239,0,0,1,1.425.115,2.979,2.979,0,0,1,1.314,1.208,11.948,11.948,0,0,1,1.221,2.487,33.951,33.951,0,0,1,1.16,4.023,33.3,33.3,0,0,1,.681,3.948,10.9,10.9,0,0,1-.018,2.717,3.239,3.239,0,0,1-.663,1.651,2.025,2.025,0,0,1-1.217.761l-37.933,8.763,6,25.97,32.1-7.413a2.508,2.508,0,0,1,1.487.128,3.866,3.866,0,0,1,1.328,1.168,10.248,10.248,0,0,1,1.2,2.412,29.852,29.852,0,0,1,1.1,3.846,31.4,31.4,0,0,1,.712,4,9.081,9.081,0,0,1-.044,2.638,3.015,3.015,0,0,1-.687,1.58,2.5,2.5,0,0,1-1.288.743l-32.108,7.413,6.921,29.979,38.287-8.842a2.257,2.257,0,0,1,1.456.164,3.278,3.278,0,0,1,1.363,1.2,10.267,10.267,0,0,1,1.217,2.43,34.641,34.641,0,0,1,1.1,3.94Zm-200.6,40.539a84.681,84.681,0,0,0-11.657-10.538,33.45,33.45,0,0,0-11.6-5.674,21.744,21.744,0,0,0-11.6.226c-3.885,1.106-7.793,3.487-11.75,7.178-3.979,3.713-6.63,7.594-7.9,11.582a25.522,25.522,0,0,0-.85,12.051,34.438,34.438,0,0,0,4.7,12.033,73.5,73.5,0,0,0,8.922,11.6,87.077,87.077,0,0,0,11.936,10.812,34.1,34.1,0,0,0,11.631,5.8,20.6,20.6,0,0,0,11.551-.226q5.769-1.719,11.768-7.294a28.1,28.1,0,0,0,7.9-11.538,24.4,24.4,0,0,0,.85-12.086,34.9,34.9,0,0,0-4.833-12.144,73.653,73.653,0,0,0-9.075-11.782Zm16.211-16.733a81.726,81.726,0,0,1,14.091,20.044,48.814,48.814,0,0,1,5.041,20.163,43.449,43.449,0,0,1-4.289,19.539,60.972,60.972,0,0,1-13.95,18.367,67.515,67.515,0,0,1-18.517,12.733,38.182,38.182,0,0,1-18.481,3.341,43.414,43.414,0,0,1-18.8-6.236,87.45,87.45,0,0,1-19.327-16.092,77.121,77.121,0,0,1-13.769-19.743,48.494,48.494,0,0,1-4.943-19.986,43.47,43.47,0,0,1,4.284-19.575c2.965-6.4,7.665-12.551,13.972-18.437a67.149,67.149,0,0,1,18.265-12.542,38.457,38.457,0,0,1,18.468-3.4,43.9,43.9,0,0,1,18.8,6.072c6.337,3.567,12.687,8.834,19.147,15.751ZM966.9,336.3a34.6,34.6,0,0,1,4.036,1.367,9.557,9.557,0,0,1,2.461,1.421,3.993,3.993,0,0,1,1.155,1.416,2.089,2.089,0,0,1,.128,1.438l-9.834,34.281,28.192,8.086,9.232-32.183a2.145,2.145,0,0,1,.774-1.146,3.435,3.435,0,0,1,1.682-.624,9.167,9.167,0,0,1,2.792.071c1.106.2,2.465.509,4.089.965a41.584,41.584,0,0,1,4.019,1.363,10.037,10.037,0,0,1,2.465,1.429,3.513,3.513,0,0,1,1.2,1.452,2.055,2.055,0,0,1,.106,1.4l-9.223,32.188,39.052,11.2a2.594,2.594,0,0,1,1.394.929,4.007,4.007,0,0,1,.6,2.062,15.831,15.831,0,0,1-.252,3.5,46.935,46.935,0,0,1-1.234,5.231,47.559,47.559,0,0,1-1.726,5.09,15.892,15.892,0,0,1-1.633,3.085,4.064,4.064,0,0,1-1.611,1.43,2.321,2.321,0,0,1-1.677.088L948.01,394.561q-3.579-1.009-4.625-3.3a6.878,6.878,0,0,1-.288-4.957l14.149-49.359a2.193,2.193,0,0,1,.819-1.177,3.994,3.994,0,0,1,1.757-.58,10.059,10.059,0,0,1,2.908.12,39.26,39.26,0,0,1,4.17.992Z" transform="translate(54.918 40.194)" fill="#fff" fill-rule="evenodd"/>
        <path id="Path_2865" data-name="Path 2865" d="M1619.14,240.958a54.035,54.035,0,0,0-11.776-9.343,32.275,32.275,0,0,0-12.8-4.284,28.92,28.92,0,0,0-13.18,1.806q-6.625,2.476-13.98,9.573l-9.608,9.285,53.4,55.3,9.718-9.374a46.615,46.615,0,0,0,9.847-12.808,26.351,26.351,0,0,0,2.757-12.737,31.37,31.37,0,0,0-3.82-13.339,62.21,62.21,0,0,0-10.555-14.078m9.582-9.971a69.04,69.04,0,0,1,13.2,18.406,40.59,40.59,0,0,1,4.129,18.079,39.8,39.8,0,0,1-4.559,17.521,67.757,67.757,0,0,1-13.547,17.415L1612.9,316.952a5.417,5.417,0,0,1-3.186,1.456c-1.314.142-2.647-.5-4.032-1.916l-61.207-63.38c-1.372-1.425-1.956-2.775-1.762-4.089a5.381,5.381,0,0,1,1.563-3.142l16.1-15.552q9.228-8.909,17.9-12.68a39.7,39.7,0,0,1,17.327-3.439,40.707,40.707,0,0,1,16.985,4.536,60.651,60.651,0,0,1,16.136,12.241Zm-119.883,55.675-.057.044,13.432,50.355,28.475-19.212Zm80.552,43.372a10.17,10.17,0,0,1,2.062,1.885,1.878,1.878,0,0,1,.394,1.62,3.679,3.679,0,0,1-1.292,1.717,36.193,36.193,0,0,1-3.049,2.244c-1.292.872-2.376,1.536-3.2,2a9.922,9.922,0,0,1-1.978.885,2.352,2.352,0,0,1-1.306-.013,5.606,5.606,0,0,1-1.169-.58L1559.39,324.6l-34.046,22.956,6.545,24.226a4.129,4.129,0,0,1,.164,1.306,2.955,2.955,0,0,1-.456,1.337,7.252,7.252,0,0,1-1.425,1.562,30.781,30.781,0,0,1-2.793,2.067,29.247,29.247,0,0,1-3.116,1.854,3.651,3.651,0,0,1-2.049.5,1.823,1.823,0,0,1-1.323-.987,9.334,9.334,0,0,1-.983-2.607l-23.849-94.594a3.835,3.835,0,0,1-.093-1.6,3.341,3.341,0,0,1,.73-1.518,10.924,10.924,0,0,1,1.806-1.717c.778-.606,1.788-1.35,3.063-2.213,1.336-.9,2.492-1.615,3.417-2.151a11.157,11.157,0,0,1,2.372-1.1,3.427,3.427,0,0,1,1.775-.119,3.793,3.793,0,0,1,1.478.682Zm-105.9,34.148a19.324,19.324,0,0,0-4.24-6.665,14.419,14.419,0,0,0-5.935-3.7,18.349,18.349,0,0,0-7.594-.708,38.074,38.074,0,0,0-9.98,2.775l-14.574,5.886,13.052,32.276,17.685-7.143a26.849,26.849,0,0,0,6.9-3.934,17.337,17.337,0,0,0,4.292-5.165,14.355,14.355,0,0,0,1.766-6.333,17.129,17.129,0,0,0-1.386-7.29Zm-22.376-39.442a20.248,20.248,0,0,0-3.346-5.647,11.952,11.952,0,0,0-4.745-3.39,13.88,13.88,0,0,0-6.337-.8,31.678,31.678,0,0,0-8.833,2.421l-12.587,5.09,11.994,29.665,13.861-5.59a21.15,21.15,0,0,0,7.165-4.359,14.907,14.907,0,0,0,3.452-5.253,14.123,14.123,0,0,0,.845-6.015,21.655,21.655,0,0,0-1.477-6.123Zm34.9,33.569a29.568,29.568,0,0,1,2.124,8.4,24.6,24.6,0,0,1-3.169,14.835,30.249,30.249,0,0,1-4.792,6.218,39.25,39.25,0,0,1-6.612,5.258,54.052,54.052,0,0,1-8.856,4.448l-23.952,9.67a5.393,5.393,0,0,1-3.5.155c-1.274-.35-2.274-1.447-3.027-3.284l-33-81.693c-.743-1.828-.774-3.315-.1-4.448a5.322,5.322,0,0,1,2.628-2.323l20.827-8.418a51.777,51.777,0,0,1,14.056-3.89,25.481,25.481,0,0,1,10.582,1.009,20.118,20.118,0,0,1,8.223,5.174,27.555,27.555,0,0,1,5.731,9.033,25.826,25.826,0,0,1,1.717,6.568,21.268,21.268,0,0,1-.08,6.408,20.087,20.087,0,0,1-2,6.041,21.568,21.568,0,0,1-3.948,5.382,23.934,23.934,0,0,1,8.059-.243,23.053,23.053,0,0,1,7.621,2.456,24.265,24.265,0,0,1,6.6,5.266,27.153,27.153,0,0,1,4.865,7.977Zm-130.332-19.823-.08.018-7.3,51.59,33.71-6.559Zm57.2,71.39a9.842,9.842,0,0,1,1.159,2.545,1.888,1.888,0,0,1-.261,1.642,3.784,3.784,0,0,1-1.863,1.08,36.413,36.413,0,0,1-3.687.867c-1.522.3-2.784.487-3.726.6a10.536,10.536,0,0,1-2.169.044,2.353,2.353,0,0,1-1.186-.518,6.657,6.657,0,0,1-.854-1l-12.906-22-40.322,7.838-3.435,24.855a3.837,3.837,0,0,1-.35,1.261,3.01,3.01,0,0,1-.938,1.053,7.661,7.661,0,0,1-1.921.889,34.359,34.359,0,0,1-3.381.81,26.335,26.335,0,0,1-3.594.487,3.593,3.593,0,0,1-2.084-.341,1.818,1.818,0,0,1-.837-1.425,9.156,9.156,0,0,1,.124-2.779l15.012-96.4a3.811,3.811,0,0,1,.527-1.514,3.272,3.272,0,0,1,1.261-1.1,10.457,10.457,0,0,1,2.337-.876c.956-.261,2.173-.553,3.682-.837,1.589-.319,2.925-.518,3.992-.655a11.748,11.748,0,0,1,2.606-.084,3.537,3.537,0,0,1,1.682.58,3.821,3.821,0,0,1,1.093,1.217Zm-106.486,18.8a1.9,1.9,0,0,1-.4,1.04,1.975,1.975,0,0,1-1.12.628,11.7,11.7,0,0,1-1.969.274,19,19,0,0,1-3.111-.062,20.286,20.286,0,0,1-2.988-.474,11.342,11.342,0,0,1-1.934-.611,1.7,1.7,0,0,1-1.159-1.912l7.493-85.712-.16-.018-42.6,83.017a2.737,2.737,0,0,1-.744.876,3.5,3.5,0,0,1-1.239.54,11.482,11.482,0,0,1-1.96.208c-.735,0-1.624-.018-2.629-.106a21,21,0,0,1-2.713-.394,11.061,11.061,0,0,1-1.89-.593,3.749,3.749,0,0,1-1.106-.748,1.955,1.955,0,0,1-.5-.907l-26.005-89.009-.075-.013-7.5,85.73a2.028,2.028,0,0,1-.407,1.031,1.917,1.917,0,0,1-1.129.642,12.8,12.8,0,0,1-2.013.266,22.477,22.477,0,0,1-3.138-.071,20.227,20.227,0,0,1-3.014-.469,11.323,11.323,0,0,1-1.908-.611,2,2,0,0,1-.929-.819,2.113,2.113,0,0,1-.159-1.08l7.917-90.527c.186-2.133.867-3.585,2.058-4.4a5.775,5.775,0,0,1,3.864-1.044l7.913.686a17.4,17.4,0,0,1,4.218.845,8.369,8.369,0,0,1,5.129,4.421,17.665,17.665,0,0,1,1.27,3.731l22.306,73.749.354.031,35.9-68.452a21.147,21.147,0,0,1,2.151-3.713,10.461,10.461,0,0,1,2.4-2.359,7.546,7.546,0,0,1,2.735-1.146,11.908,11.908,0,0,1,3.4-.115l8.272.717a7.5,7.5,0,0,1,2.155.527,4.859,4.859,0,0,1,1.646,1.23,5.137,5.137,0,0,1,1.009,1.916,6.879,6.879,0,0,1,.23,2.744ZM1180.01,319.9l-.076-.031-34.219,39.291,31.838,12.87Zm9.086,91.023a10.008,10.008,0,0,1-.416,2.771,1.891,1.891,0,0,1-1.111,1.226,3.724,3.724,0,0,1-2.155-.111,33.447,33.447,0,0,1-3.562-1.27c-1.447-.584-2.611-1.111-3.448-1.522a11.02,11.02,0,0,1-1.845-1.151,2.372,2.372,0,0,1-.708-1.075,5.92,5.92,0,0,1-.182-1.306L1176.82,383l-38.079-15.379-16.4,18.979a4.092,4.092,0,0,1-1,.863,2.964,2.964,0,0,1-1.363.372,7.633,7.633,0,0,1-2.093-.31c-.85-.243-1.934-.62-3.267-1.151a28.418,28.418,0,0,1-3.279-1.553,3.606,3.606,0,0,1-1.562-1.421,1.822,1.822,0,0,1,.076-1.655,8.9,8.9,0,0,1,1.624-2.266l65.08-72.665a3.7,3.7,0,0,1,1.274-.982,3.277,3.277,0,0,1,1.66-.235,11.072,11.072,0,0,1,2.43.54c.938.3,2.125.721,3.554,1.288,1.5.606,2.731,1.168,3.691,1.642a11.4,11.4,0,0,1,2.24,1.35,3.428,3.428,0,0,1,1.093,1.4,3.8,3.8,0,0,1,.252,1.615Zm-87.615-37.6a18.711,18.711,0,0,1-1.443,2.116,6.627,6.627,0,0,1-1.336,1.252,2.927,2.927,0,0,1-1.261.483,1.992,1.992,0,0,1-1.213-.319l-37.441-22.5a5.393,5.393,0,0,1-2.23-2.708c-.478-1.23-.221-2.682.806-4.39l47.111-78.4a1.805,1.805,0,0,1,.819-.748,1.845,1.845,0,0,1,1.292-.08,11.343,11.343,0,0,1,1.982.686,20.41,20.41,0,0,1,2.8,1.434,21.941,21.941,0,0,1,2.593,1.8,12.138,12.138,0,0,1,1.518,1.425,2.027,2.027,0,0,1,.531,1.173,1.979,1.979,0,0,1-.274,1.084l-44,73.218,30.356,18.243a2,2,0,0,1,.836.929,2.692,2.692,0,0,1,.2,1.283,4.885,4.885,0,0,1-.452,1.722,17.168,17.168,0,0,1-1.2,2.3Zm-49.966-55.763a28.608,28.608,0,0,1-10.029,7.647,26.344,26.344,0,0,1-11.409,2.279,29.738,29.738,0,0,1-11.794-2.722,44.56,44.56,0,0,1-11.263-7.223,49.34,49.34,0,0,1-10.714-13.206,35.679,35.679,0,0,1-2.581-5.541,15.26,15.26,0,0,1-.9-3.722,5.678,5.678,0,0,1,.553-2.638,14.026,14.026,0,0,1,2.155-3.116,21.458,21.458,0,0,1,1.957-2,7.061,7.061,0,0,1,1.5-1.036,1.986,1.986,0,0,1,1.217-.226,2.009,2.009,0,0,1,.987.5,6.167,6.167,0,0,1,1.412,2.934,45.326,45.326,0,0,0,1.916,5.417,49.8,49.8,0,0,0,3.687,7.01,34.285,34.285,0,0,0,6.647,7.546,25.47,25.47,0,0,0,6.665,4.266,18.363,18.363,0,0,0,6.727,1.562,13.69,13.69,0,0,0,6.346-1.31,16.955,16.955,0,0,0,5.616-4.337,13.127,13.127,0,0,0,3.249-6.678,19.353,19.353,0,0,0-.358-7.263,43.968,43.968,0,0,0-2.691-7.794q-1.772-4.016-3.687-8.267a86.614,86.614,0,0,1-3.328-8.6,35.064,35.064,0,0,1-1.717-8.865,26.012,26.012,0,0,1,1.1-9.019,25.675,25.675,0,0,1,5.342-9.077,26.032,26.032,0,0,1,8.927-6.851,22.93,22.93,0,0,1,10.046-2.031,28.088,28.088,0,0,1,10.507,2.5,40.064,40.064,0,0,1,10.144,6.532,41.376,41.376,0,0,1,4.612,4.775,44.831,44.831,0,0,1,3.722,5.266,32.641,32.641,0,0,1,2.523,5.041,13.284,13.284,0,0,1,1.044,3.412,5.712,5.712,0,0,1-.04,1.487,3.393,3.393,0,0,1-.429,1.062,10.464,10.464,0,0,1-.85,1.332c-.354.5-.863,1.111-1.487,1.828a23.621,23.621,0,0,1-1.686,1.792,13.465,13.465,0,0,1-1.438,1.128,2.452,2.452,0,0,1-1.186.376,1.579,1.579,0,0,1-.96-.376,6.335,6.335,0,0,1-1.274-2.54c-.434-1.337-1.022-2.868-1.726-4.691a38.136,38.136,0,0,0-3.045-5.873,26.232,26.232,0,0,0-5.28-6.076,21.033,21.033,0,0,0-6.161-3.868,14.6,14.6,0,0,0-5.735-1.067,11.018,11.018,0,0,0-5.09,1.323,14.282,14.282,0,0,0-4.284,3.368,12.756,12.756,0,0,0-3.186,6.621,18.931,18.931,0,0,0,.38,7.3,43.536,43.536,0,0,0,2.673,7.887c1.212,2.748,2.438,5.505,3.7,8.338,1.244,2.81,2.394,5.7,3.412,8.626a34.6,34.6,0,0,1,1.841,8.887,23.844,23.844,0,0,1-6.276,17.977Zm-80.37-39.614a2.021,2.021,0,0,1-1.022.443,1.919,1.919,0,0,1-1.244-.35,11.415,11.415,0,0,1-1.646-1.275,21.754,21.754,0,0,1-2.187-2.275,21.362,21.362,0,0,1-1.854-2.54,12.316,12.316,0,0,1-.987-1.859,1.938,1.938,0,0,1-.128-1.284,1.969,1.969,0,0,1,.62-.934l72.643-60.955a1.725,1.725,0,0,1,1.04-.425,2.256,2.256,0,0,1,1.3.407,14.46,14.46,0,0,1,1.668,1.292,20.34,20.34,0,0,1,2.1,2.186,21.458,21.458,0,0,1,1.876,2.549,11.575,11.575,0,0,1,.96,1.837,1.931,1.931,0,0,1,.128,1.283,1.961,1.961,0,0,1-.615.934Z" transform="translate(120.848 562.424)" fill="#fff" fill-rule="evenodd"/>
        <path id="Path_2866" data-name="Path 2866" d="M991.419,257.829l5.329,2.811,206.411-141-3.836-5.623-206.411,141-1.493,2.811,1.493-2.811-1.493,1.012" transform="translate(221.567 245.625)" fill="#006e33"/>
        <path id="Path_2867" data-name="Path 2867" d="M994.83,368.936l3.411-3.411V146.51h-6.822V365.525l3.411,3.411-3.411-3.411v3.411" transform="translate(221.567 356.944)" fill="#006e33"/>
        <path id="Path_2868" data-name="Path 2868" d="M1198.6,202.049v-6.822H992.19v6.822H1198.6" transform="translate(224.207 523.831)" fill="#006e33"/>
        <path id="Path_2869" data-name="Path 2869" d="M1248.64,198.637l-3.411-3.411h-206.4v6.822h206.4l3.411-3.411-3.411,3.411h3.411" transform="translate(383.979 523.831)" fill="#006e33"/>
        <path id="Path_2870" data-name="Path 2870" d="M1090.03,145.874l-5.329,2.811V367.7h6.822V148.686l-1.494-2.811,1.494,2.811v-1.8" transform="translate(541.101 354.768)" fill="#006e33"/>
        <path id="Path_2871" data-name="Path 2871" d="M1038.4,115.025v5.623l206.4,141,3.835-5.622-206.4-141h0l-1.918-1.306" transform="translate(382.494 244.614)" fill="#006e33"/>
        <path id="Path_2872" data-name="Path 2872" d="M1232.18,106.923,982.388,275.906l43.38,6.215L1232.18,149.61l206.4,132.511,43.377-6.215" transform="translate(190.629 221.333)" fill="#006e33" fill-rule="evenodd"/>
        <path id="Path_2873" data-name="Path 2873" d="M1140.51,163.724l-3.412-3.411H1026.31v6.822H1137.1l3.412-3.411v-3.411H1137.1" transform="translate(341.097 404.227)" fill="#006e33"/>
        <path id="Path_2874" data-name="Path 2874" d="M1053.98,283.716l3.412-3.411V161.083h-6.822V280.3l3.41,3.411h3.412V280.3" transform="translate(424.212 406.868)" fill="#006e33"/>
        <path id="Path_2875" data-name="Path 2875" d="M1025.54,190.662l3.412,3.411H1139.74v-6.822H1028.95l-3.412,3.411v3.411h3.412" transform="translate(338.456 496.511)" fill="#006e33"/>
        <path id="Path_2876" data-name="Path 2876" d="M1028.95,160.312l-3.412,3.411V282.946h6.822V163.724l-3.41-3.411h-3.412v3.411" transform="translate(338.456 404.227)" fill="#006e33"/>
        <path id="Path_2877" data-name="Path 2877" d="M1053.5,163.724l-3.411-3.411h-53.2v6.822h53.208l3.411-3.411v-3.411h-3.411" transform="translate(240.288 404.227)" fill="#006e33"/>
        <path id="Path_2878" data-name="Path 2878" d="M1011.55,219.358l3.411-3.411V161.083h-6.822v54.864l3.411,3.411h3.411v-3.411" transform="translate(278.833 406.868)" fill="#006e33"/>
        <path id="Path_2879" data-name="Path 2879" d="M996.114,176.12l3.411,3.411h53.208v-6.822H999.525l-3.411,3.411v3.411h3.411" transform="translate(237.647 446.694)" fill="#006e33"/>
        <path id="Path_2880" data-name="Path 2880" d="M999.525,160.312l-3.411,3.411v54.864h6.822V163.724l-3.411-3.411h-3.411v3.411" transform="translate(237.647 404.227)" fill="#006e33"/>
        <path id="Path_2881" data-name="Path 2881" d="M1008.14,163.724l3.411,3.411h53.208v-6.822h-53.208l-3.411,3.411,3.411-3.411h-3.411" transform="translate(278.85 404.227)" fill="#006e33"/>
        <path id="Path_2882" data-name="Path 2882" d="M1011.55,219.358l3.411-3.411V161.083h-6.821v54.864l3.411,3.411-3.411-3.411v3.411" transform="translate(278.85 406.868)" fill="#006e33"/>
        <path id="Path_2883" data-name="Path 2883" d="M1065.53,176.12l-3.412-3.411H1008.91v6.822h53.208l3.412-3.411-3.412,3.411h3.412" transform="translate(281.491 446.694)" fill="#006e33"/>
        <path id="Path_2884" data-name="Path 2884" d="M1023.57,160.312l-3.411,3.411v54.864h6.822V163.724l-3.412-3.411,3.412,3.411v-3.411" transform="translate(320.036 404.227)" fill="#006e33"/>
        <path id="Path_2885" data-name="Path 2885" d="M1053.5,188.518l-3.411-3.411h-53.2v6.822h53.208l3.411-3.411-3.411,3.411h3.411" transform="translate(240.288 489.163)" fill="#006e33"/>
        <path id="Path_2886" data-name="Path 2886" d="M1011.55,172.709l-3.411,3.411v54.866h6.822V176.12l-3.411-3.411,3.411,3.411v-3.411" transform="translate(278.833 446.694)" fill="#006e33"/>
        <path id="Path_2887" data-name="Path 2887" d="M996.114,176.12l3.411,3.411h53.208v-6.822H999.525l-3.411,3.411,3.411-3.411h-3.411" transform="translate(237.647 446.694)" fill="#006e33"/>
        <path id="Path_2888" data-name="Path 2888" d="M999.525,231.756l3.411-3.411V173.48h-6.822v54.866l3.411,3.411-3.411-3.411v3.411" transform="translate(237.647 449.335)" fill="#006e33"/>
        <path id="Path_2889" data-name="Path 2889" d="M1008.14,188.518l3.411,3.411h53.208v-6.822h-53.208l-3.411,3.411v3.411h3.411" transform="translate(278.85 489.163)" fill="#006e33"/>
        <path id="Path_2890" data-name="Path 2890" d="M1011.55,172.709l-3.411,3.411v54.866h6.821V176.12l-3.411-3.411h-3.411v3.411" transform="translate(278.85 446.694)" fill="#006e33"/>
        <path id="Path_2891" data-name="Path 2891" d="M1065.53,176.12l-3.412-3.411H1008.91v6.822h53.208l3.412-3.411v-3.411h-3.412" transform="translate(281.491 446.694)" fill="#006e33"/>
        <path id="Path_2892" data-name="Path 2892" d="M1023.57,231.756l3.412-3.411V173.48h-6.822v54.866l3.411,3.411h3.412v-3.411" transform="translate(320.036 449.335)" fill="#006e33"/>
        <path id="Path_2893" data-name="Path 2893" d="M1113.34,163.724l-3.411-3.411h-53.207v6.822h53.207l3.411-3.411v-3.411h-3.411" transform="translate(445.282 404.227)" fill="#006e33"/>
        <path id="Path_2894" data-name="Path 2894" d="M1071.39,219.358l3.411-3.411V161.083h-6.822v54.864l3.411,3.411h3.411v-3.411" transform="translate(483.826 406.868)" fill="#006e33"/>
        <path id="Path_2895" data-name="Path 2895" d="M1055.95,176.12l3.41,3.411h53.207v-6.822H1059.36l-3.41,3.411v3.411h3.41" transform="translate(442.641 446.694)" fill="#006e33"/>
        <path id="Path_2896" data-name="Path 2896" d="M1059.36,160.312l-3.41,3.411v54.864h6.821V163.724l-3.411-3.411h-3.41v3.411" transform="translate(442.641 404.227)" fill="#006e33"/>
        <path id="Path_2897" data-name="Path 2897" d="M1067.98,163.724l3.412,3.411H1124.6v-6.822h-53.2l-3.412,3.411,3.412-3.411h-3.412" transform="translate(483.845 404.227)" fill="#006e33"/>
        <path id="Path_2898" data-name="Path 2898" d="M1071.39,219.358l3.411-3.411V161.083h-6.822v54.864l3.412,3.411-3.412-3.411v3.411" transform="translate(483.845 406.868)" fill="#006e33"/>
        <path id="Path_2899" data-name="Path 2899" d="M1125.37,176.12l-3.411-3.411h-53.2v6.822h53.2l3.411-3.411-3.411,3.411h3.411" transform="translate(486.486 446.694)" fill="#006e33"/>
        <path id="Path_2900" data-name="Path 2900" d="M1083.42,160.312l-3.42,3.412v54.864h6.822V163.724l-3.411-3.411,3.411,3.411v-3.411" transform="translate(525.028 404.227)" fill="#006e33"/>
        <path id="Path_2901" data-name="Path 2901" d="M1113.34,188.518l-3.411-3.411h-53.207v6.822h53.207l3.411-3.411-3.411,3.411h3.411" transform="translate(445.282 489.163)" fill="#006e33"/>
        <path id="Path_2902" data-name="Path 2902" d="M1071.39,172.709l-3.411,3.411v54.866h6.822V176.12l-3.411-3.411,3.411,3.411v-3.411" transform="translate(483.826 446.694)" fill="#006e33"/>
        <path id="Path_2903" data-name="Path 2903" d="M1055.95,176.12l3.41,3.411h53.207v-6.822H1059.36l-3.41,3.411,3.41-3.411h-3.41" transform="translate(442.641 446.694)" fill="#006e33"/>
        <path id="Path_2904" data-name="Path 2904" d="M1059.36,231.756l3.411-3.411V173.48h-6.821v54.866l3.41,3.411-3.41-3.411v3.411" transform="translate(442.641 449.335)" fill="#006e33"/>
        <path id="Path_2905" data-name="Path 2905" d="M1067.98,188.518l3.412,3.411H1124.6v-6.822h-53.2l-3.412,3.411v3.411h3.412" transform="translate(483.845 489.163)" fill="#006e33"/>
        <path id="Path_2906" data-name="Path 2906" d="M1071.39,172.709l-3.412,3.411v54.866h6.822V176.12l-3.411-3.411h-3.412v3.411" transform="translate(483.845 446.694)" fill="#006e33"/>
        <path id="Path_2907" data-name="Path 2907" d="M1125.37,176.12l-3.411-3.411h-53.2v6.822h53.2l3.411-3.411v-3.411h-3.411" transform="translate(486.486 446.694)" fill="#006e33"/>
        <path id="Path_2908" data-name="Path 2908" d="M1083.42,231.756l3.411-3.411V173.48H1080v54.866l3.411,3.411h3.411v-3.411" transform="translate(525.028 449.335)" fill="#006e33"/>
        <path id="Path_2909" data-name="Path 2909" d="M981.042,150.956l10.191,28.291,31.838.345-25.53,17.836,9.478,28.5-25.977-17.267-25.976,17.267,9.48-28.5-25.538-17.836,31.84-.345" transform="translate(42.024 372.177)" fill="#fff" fill-rule="evenodd"/>
      </g>
    </g>
    <text id="Foreign_Office_Employees_Cooperative_Housing_Society" data-name="Foreign Office Employees
Cooperative Housing Society" transform="translate(1155 874)" font-size="188" font-family="SegoeUI-Bold, Segoe UI" font-weight="700"><tspan x="0" y="0">Foreign Office Employees</tspan><tspan x="0" y="250">Cooperative Housing Society</tspan></text>
  </g>
</svg>
