<svg xmlns="http://www.w3.org/2000/svg" width="500" height="478.361" viewBox="0 0 500 478.361">
  <g id="commercial-buldings" transform="translate(0.001 -8.861)">
    <g id="Group_1" data-name="Group 1" transform="translate(-0.001 8.861)">
      <path id="Path_1" data-name="Path 1" d="M485.11,457.444H470.222V63.391c0-30.064-22.262-54.53-49.628-54.53H284.118c-27.364,0-49.628,24.467-49.628,54.53v72.367a54.185,54.185,0,0,0-12.407-1.587H85.608c-27.364,0-49.628,20.06-49.628,44.734V457.443H14.889a14.889,14.889,0,1,0,0,29.779H485.11a14.888,14.888,0,0,0,0-29.777ZM75.682,178.9c0-1.465,3.484-5.032,9.926-5.032H222.084c6.441,0,9.926,3.563,9.926,5.032v278.54H75.682ZM274.193,63.391c0-8.744,5.231-14.829,9.926-14.829H420.6c4.7,0,9.926,6.085,9.926,14.829V457.445H274.193Z" transform="translate(0.001 -8.861)" fill="#006e33"/>
      <path id="Path_2" data-name="Path 2" d="M275.857,55.12H251.314a14.374,14.374,0,0,0-14.372,14.367V94.033a14.374,14.374,0,0,0,14.37,14.374h24.543A14.374,14.374,0,0,0,290.227,94.04V69.492A14.374,14.374,0,0,0,275.86,55.12Z" transform="translate(52.381 1.365)" fill="#006e33"/>
      <path id="Path_3" data-name="Path 3" d="M275.857,112.02H251.314a14.374,14.374,0,0,0-14.372,14.367v24.546A14.374,14.374,0,0,0,251.309,165.3h24.546a14.374,14.374,0,0,0,14.372-14.367V126.392A14.374,14.374,0,0,0,275.86,112.02Z" transform="translate(52.381 13.944)" fill="#006e33"/>
      <path id="Path_4" data-name="Path 4" d="M275.857,168.92H251.314a14.374,14.374,0,0,0-14.372,14.367v24.546A14.374,14.374,0,0,0,251.309,222.2h24.546a14.374,14.374,0,0,0,14.372-14.367V183.292A14.374,14.374,0,0,0,275.86,168.92Z" transform="translate(52.381 26.523)" fill="#006e33"/>
      <path id="Path_5" data-name="Path 5" d="M335.464,55.12H310.921a14.374,14.374,0,0,0-14.372,14.367V94.033A14.374,14.374,0,0,0,310.916,108.4h24.546a14.374,14.374,0,0,0,14.372-14.367V69.492A14.368,14.368,0,0,0,335.462,55.12Z" transform="translate(65.558 1.365)" fill="#006e33"/>
      <path id="Path_6" data-name="Path 6" d="M335.464,112.02H310.921a14.374,14.374,0,0,0-14.372,14.367v24.546A14.374,14.374,0,0,0,310.916,165.3h24.546a14.374,14.374,0,0,0,14.372-14.367V126.392a14.368,14.368,0,0,0-14.372-14.372Z" transform="translate(65.558 13.944)" fill="#006e33"/>
      <path id="Path_7" data-name="Path 7" d="M335.464,168.92H310.921a14.374,14.374,0,0,0-14.372,14.367v24.546A14.374,14.374,0,0,0,310.916,222.2h24.546a14.374,14.374,0,0,0,14.372-14.367V183.292a14.368,14.368,0,0,0-14.372-14.372Z" transform="translate(65.558 26.523)" fill="#006e33"/>
      <path id="Path_8" data-name="Path 8" d="M275.857,225.82H251.314a14.374,14.374,0,0,0-14.372,14.367v24.546A14.374,14.374,0,0,0,251.309,279.1h24.546a14.374,14.374,0,0,0,14.372-14.367V240.192A14.374,14.374,0,0,0,275.86,225.82Z" transform="translate(52.381 39.101)" fill="#006e33"/>
      <path id="Path_9" data-name="Path 9" d="M275.857,282.72H251.314a14.374,14.374,0,0,0-14.372,14.367v24.546A14.374,14.374,0,0,0,251.309,336h24.546a14.374,14.374,0,0,0,14.372-14.367V297.092A14.374,14.374,0,0,0,275.86,282.72Z" transform="translate(52.381 51.68)" fill="#006e33"/>
      <path id="Path_10" data-name="Path 10" d="M335.464,225.82H310.921a14.374,14.374,0,0,0-14.372,14.367v24.546A14.374,14.374,0,0,0,310.916,279.1h24.546a14.374,14.374,0,0,0,14.372-14.367V240.192a14.368,14.368,0,0,0-14.372-14.372Z" transform="translate(65.558 39.101)" fill="#006e33"/>
      <path id="Path_11" data-name="Path 11" d="M335.464,282.72H310.921a14.374,14.374,0,0,0-14.372,14.367v24.546A14.374,14.374,0,0,0,310.916,336h24.546a14.374,14.374,0,0,0,14.372-14.367V297.092a14.368,14.368,0,0,0-14.372-14.372Z" transform="translate(65.558 51.68)" fill="#006e33"/>
      <path id="Path_12" data-name="Path 12" d="M113.285,168.92H88.742A14.374,14.374,0,0,0,74.37,183.287v24.546A14.374,14.374,0,0,0,88.737,222.2h24.546a14.374,14.374,0,0,0,14.372-14.367V183.292a14.376,14.376,0,0,0-14.372-14.372Z" transform="translate(16.442 26.523)" fill="#006e33"/>
      <path id="Path_13" data-name="Path 13" d="M172.892,168.92H148.349a14.374,14.374,0,0,0-14.372,14.367v24.546A14.374,14.374,0,0,0,148.344,222.2H172.89a14.374,14.374,0,0,0,14.372-14.367V183.292a14.368,14.368,0,0,0-14.37-14.372Z" transform="translate(29.619 26.523)" fill="#006e33"/>
      <path id="Path_14" data-name="Path 14" d="M113.285,225.82H88.742A14.374,14.374,0,0,0,74.37,240.187v24.546A14.374,14.374,0,0,0,88.737,279.1h24.546a14.374,14.374,0,0,0,14.372-14.367V240.192a14.376,14.376,0,0,0-14.372-14.372Z" transform="translate(16.442 39.101)" fill="#006e33"/>
      <path id="Path_15" data-name="Path 15" d="M113.285,282.72H88.742A14.374,14.374,0,0,0,74.37,297.087v24.546A14.374,14.374,0,0,0,88.737,336h24.546a14.374,14.374,0,0,0,14.372-14.367V297.092A14.376,14.376,0,0,0,113.285,282.72Z" transform="translate(16.442 51.68)" fill="#006e33"/>
      <path id="Path_16" data-name="Path 16" d="M172.892,225.82H148.349a14.374,14.374,0,0,0-14.372,14.367v24.546A14.374,14.374,0,0,0,148.344,279.1H172.89a14.374,14.374,0,0,0,14.372-14.367V240.192a14.368,14.368,0,0,0-14.37-14.372Z" transform="translate(29.619 39.101)" fill="#006e33"/>
      <path id="Path_17" data-name="Path 17" d="M172.892,282.72H148.349a14.374,14.374,0,0,0-14.372,14.367v24.546A14.374,14.374,0,0,0,148.344,336H172.89a14.374,14.374,0,0,0,14.372-14.367V297.092a14.368,14.368,0,0,0-14.37-14.372Z" transform="translate(29.619 51.68)" fill="#006e33"/>
    </g>
  </g>
</svg>
