<svg xmlns="http://www.w3.org/2000/svg" width="500" height="500" viewBox="0 0 500 500">
  <g id="electricity" transform="translate(-4 -4)">
    <path id="Path_1" data-name="Path 1" d="M86.483,21.241a17.241,17.241,0,1,0-34.483,0v94.828H86.483Z" transform="translate(365.793)" fill="#006e33"/>
    <path id="Path_2" data-name="Path 2" d="M39.758,44.654V12.24L10.62,70.516H48.379A8.621,8.621,0,0,1,57,79.137V111.55L86.137,53.274H48.379A8.621,8.621,0,0,1,39.758,44.654Z" transform="translate(50.449 62.794)" fill="#006e33"/>
    <path id="Path_3" data-name="Path 3" d="M193.655,236.759V12.621A8.621,8.621,0,0,0,185.035,4H12.621A8.621,8.621,0,0,0,4,12.621V236.759a8.621,8.621,0,0,0,8.621,8.621H185.035A8.621,8.621,0,0,0,193.655,236.759ZM158.224,111.328,106.5,214.776a8.621,8.621,0,0,1-7.672,4.741,7.829,7.829,0,0,1-1.983-.259,8.621,8.621,0,0,1-6.638-8.362V150.552H47.1a8.621,8.621,0,0,1-7.672-12.5L91.155,34.6a8.483,8.483,0,0,1,9.655-4.483,8.621,8.621,0,0,1,6.638,8.362V98.828h43.1a8.621,8.621,0,0,1,7.672,12.5Z" fill="#006e33"/>
    <path id="Path_4" data-name="Path 4" d="M74.483,21.241a17.241,17.241,0,1,0-34.483,0v94.828H74.483Z" transform="translate(274.345)" fill="#006e33"/>
    <path id="Path_5" data-name="Path 5" d="M105.052,170.655a34.4,34.4,0,0,1,68.793,0A77.586,77.586,0,0,0,242.9,93.586V24.621A8.621,8.621,0,0,0,234.276,16h-8.621V33.241a8.621,8.621,0,0,1-8.621,8.621H165.31a8.621,8.621,0,0,1-8.621-8.621V16H122.207V33.241a8.621,8.621,0,0,1-8.621,8.621H61.862a8.621,8.621,0,0,1-8.621-8.621V16H44.621A8.621,8.621,0,0,0,36,24.621V93.586A77.586,77.586,0,0,0,105.052,170.655Z" transform="translate(243.862 91.448)" fill="#006e33"/>
    <path id="Path_6" data-name="Path 6" d="M46,49.241V83.724a17.241,17.241,0,1,0,34.483,0V49.241a17.241,17.241,0,0,0-34.483,0ZM71.862,75.1H54.621V57.862H71.862Z" transform="translate(320.069 213.379)" fill="#006e33"/>
    <path id="Path_7" data-name="Path 7" d="M401.931,215.034H230.466a9.483,9.483,0,0,1-9.31-6.466,8.293,8.293,0,0,1,2.414-8.276,8,8,0,0,1,5.948-2.5h60.345a25.94,25.94,0,0,0,25.862-25.862V101.845a33.715,33.715,0,0,1-17.241,0v70.086a8.621,8.621,0,0,1-8.621,8.621H229.517a25.819,25.819,0,0,0-25,32.241,26.319,26.319,0,0,0,25.948,19.483H401.931a8.621,8.621,0,0,1,8.621,8.621v8.621a8.621,8.621,0,0,1-8.621,8.621H91.586a60.414,60.414,0,0,1-60.345-60.345V34H14V197.793a77.707,77.707,0,0,0,77.586,77.586H401.931a25.94,25.94,0,0,0,25.862-25.862V240.9a25.94,25.94,0,0,0-25.862-25.862Z" transform="translate(76.207 228.621)" fill="#006e33"/>
  </g>
</svg>
