<svg xmlns="http://www.w3.org/2000/svg" width="397.889" height="500" viewBox="0 0 397.889 500">
  <g id="gas" transform="translate(-52.273)">
    <g id="Group_1" data-name="Group 1" transform="translate(52.273)">
      <path id="Path_8" data-name="Path 8" d="M253.125,162.743s-118,86.618-118,181.375a118,118,0,0,0,236.006,0c0-94.756-118-181.375-118-181.375Z" transform="translate(-54.205 -3.794)" fill="none"/>
      <path id="Path_9" data-name="Path 9" d="M428.835,202.741c-34.143-73.629-98.857-120.068-101.6-122.008L307.57,66.793c.684,26.745-8.588,45.416-14.605,56.195-34.5-31.088-58.808-67.121-63.253-99.11L226.4,0,206.731,13.939C203.318,16.358,122.665,74.228,80.113,166a305.471,305.471,0,0,0-26.69,99.779c-3.321,36.585.586,71.234,11.288,100.2,14.146,38.276,41.342,72.747,76.572,97.064C175.817,486.871,216.458,500,255.715,500c86.247,0,162.722-56.648,185.952-137.663C456.5,311.729,451.707,252.068,428.835,202.741ZM251.193,458.328a118.138,118.138,0,0,1-118-118c0-94.757,118-181.375,118-181.375s118,86.618,118,181.375A118.138,118.138,0,0,1,251.193,458.328Z" transform="translate(-52.273)" fill="#006e33"/>
    </g>
    <path id="Path_10" data-name="Path 10" d="M342.527,345c0-65.455-64.9-125-88.7-144.631-23.79,19.622-88.7,79.171-88.7,144.631a88.275,88.275,0,0,0,19.512,55.429q-.345-3.441-.35-6.973c0-53.794,69.545-104.819,69.545-104.819s69.545,51.025,69.545,104.819a69.005,69.005,0,0,1-.35,6.973A88.277,88.277,0,0,0,342.535,345Z" transform="translate(-2.631 -4.672)" fill="#006e33"/>
    <path id="Path_11" data-name="Path 11" d="M295.226,396.445c0-19.55-12.764-38.476-23.473-50.911a175.255,175.255,0,0,0-16.772-16.9,175.472,175.472,0,0,0-16.772,16.9c-10.708,12.434-23.473,31.361-23.473,50.911a40.245,40.245,0,1,0,80.489,0Z" transform="translate(-3.788 -7.662)" fill="#006e33"/>
  </g>
</svg>
