<svg id="hospital" xmlns="http://www.w3.org/2000/svg" width="500" height="500" viewBox="0 0 500 500">
  <g id="Group_2" data-name="Group 2" transform="translate(0 182.023)">
    <path id="Path_12" data-name="Path 12" d="M65.477,186.392H14.648A14.648,14.648,0,0,0,0,201.04V504.368H65.477Z" transform="translate(0 -186.392)" fill="#006e33"/>
    <path id="Path_13" data-name="Path 13" d="M495.78,186.392H444.952V504.368h65.477V201.04a14.648,14.648,0,0,0-14.648-14.648Z" transform="translate(-10.429 -186.392)" fill="#006e33"/>
  </g>
  <g id="Group_3" data-name="Group 3" transform="translate(94.773)">
    <path id="Path_14" data-name="Path 14" d="M0,0H97.879V50.947H0Z" transform="translate(180.701 402.121) rotate(90)" fill="#006e33"/>
    <path id="Path_15" data-name="Path 15" d="M392.853,60.166H346.736V14.648A14.648,14.648,0,0,0,332.087,0H174.54a14.648,14.648,0,0,0-14.648,14.648V60.166H111.7A14.648,14.648,0,0,0,97.048,74.814V500H197.505V387.473a14.648,14.648,0,0,1,14.648-14.648H292.4a14.648,14.648,0,0,1,14.648,14.648V500H407.5V74.814a14.648,14.648,0,0,0-14.648-14.648ZM185.943,322.2H170.168a14.648,14.648,0,1,1,0-29.3h15.775a14.648,14.648,0,0,1,0,29.3Zm0-58.594H170.168a14.648,14.648,0,1,1,0-29.3h15.775a14.648,14.648,0,1,1,0,29.3Zm0-58.594H170.168a14.648,14.648,0,0,1,0-29.3h15.775a14.648,14.648,0,0,1,0,29.3ZM260.162,322.2H244.387a14.648,14.648,0,0,1,0-29.3h15.775a14.648,14.648,0,0,1,0,29.3Zm0-58.594H244.387a14.648,14.648,0,0,1,0-29.3h15.775a14.648,14.648,0,1,1,0,29.3Zm0-58.594H244.387a14.648,14.648,0,0,1,0-29.3h15.775a14.648,14.648,0,0,1,0,29.3Zm21.635-87.6H266.923v14.874a14.648,14.648,0,0,1-29.3,0V117.413H222.752a14.648,14.648,0,0,1,0-29.3h14.874V73.242a14.648,14.648,0,0,1,29.3,0V88.116H281.8a14.648,14.648,0,1,1,0,29.3ZM334.381,322.2H318.606a14.648,14.648,0,1,1,0-29.3h15.775a14.648,14.648,0,0,1,0,29.3Zm0-58.594H318.606a14.648,14.648,0,1,1,0-29.3h15.775a14.648,14.648,0,1,1,0,29.3Zm0-58.594H318.606a14.648,14.648,0,1,1,0-29.3h15.775a14.648,14.648,0,0,1,0,29.3Z" transform="translate(-97.048)" fill="#006e33"/>
  </g>
</svg>
