<svg xmlns="http://www.w3.org/2000/svg" width="500" height="498.996" viewBox="0 0 500 498.996">
  <g id="global" transform="translate(0 -0.316)">
    <path id="Path_1" data-name="Path 1" d="M231.816,459.117c38.235-5.432,71.753-45.338,92.845-104.272a453.85,453.85,0,0,0-92.845-10.93Zm0,0" transform="translate(27.119 40.196)" fill="#006e33"/>
    <path id="Path_2" data-name="Path 2" d="M287.324,448.141c2.26-.654,4.512-1.313,6.746-2.038,1.885-.607,3.744-1.261,5.6-1.911,2.2-.759,4.389-1.54,6.571-2.369,1.859-.707,3.7-1.457,5.546-2.208,2.129-.894,4.254-1.785,6.357-2.679,1.837-.807,3.661-1.654,5.485-2.5,2.064-.973,4.119-1.963,6.157-2.993q2.683-1.368,5.362-2.8,3-1.61,5.969-3.294c1.789-1.012,3.512-2.029,5.253-3.076q2.906-1.787,5.781-3.573c1.715-1.091,3.425-2.2,5.114-3.342,1.885-1.27,3.744-2.592,5.594-3.914,1.662-1.191,3.316-2.378,4.939-3.573,1.789-1.379,3.621-2.806,5.415-4.237,1.593-1.27,3.181-2.531,4.747-3.835,1.785-1.483,3.495-3.019,5.227-4.555,1.518-1.348,3.046-2.683,4.529-4.067,1.706-1.593,3.368-3.242,5.031-4.878,1.44-1.422,2.9-2.823,4.307-4.28.262-.271.51-.563.781-.842a300.342,300.342,0,0,0-61.229-23.561,221.74,221.74,0,0,1-57.11,92.736c.724-.188,1.449-.34,2.173-.528,1.911-.537,3.787-1.126,5.655-1.68Zm0,0" transform="translate(32.697 41.799)" fill="#006e33"/>
    <path id="Path_3" data-name="Path 3" d="M460.744,231.684H353.6a463.423,463.423,0,0,1-18.042,123.628A310.776,310.776,0,0,1,403.376,382.3a249.658,249.658,0,0,0,57.368-150.614Zm0,0" transform="translate(39.256 27.067)" fill="#006e33"/>
    <path id="Path_4" data-name="Path 4" d="M231.816,228.171H347.865a447.023,447.023,0,0,0-17.593-119.229,470.678,470.678,0,0,1-98.456,11.741Zm0,0" transform="translate(27.119 12.708)" fill="#006e33"/>
    <path id="Path_5" data-name="Path 5" d="M231.816.316v115.2a454.154,454.154,0,0,0,92.845-10.93C303.569,45.655,270.051,5.749,231.816.317Zm0,0" transform="translate(27.119)" fill="#006e33"/>
    <path id="Path_6" data-name="Path 6" d="M231.816,339.172a470.977,470.977,0,0,1,98.456,11.746,447.054,447.054,0,0,0,17.593-119.234H231.816Zm0,0" transform="translate(27.119 27.067)" fill="#006e33"/>
    <path id="Path_7" data-name="Path 7" d="M403.376,80.844a310.782,310.782,0,0,1-67.818,26.987A463.414,463.414,0,0,1,353.6,231.458H460.744A249.733,249.733,0,0,0,403.376,80.844Zm0,0" transform="translate(39.256 9.421)" fill="#006e33"/>
    <path id="Path_8" data-name="Path 8" d="M397.866,75.95c-.262-.266-.51-.554-.768-.829-1.414-1.457-2.88-2.862-4.32-4.28-1.658-1.636-3.312-3.29-5.022-4.878-1.479-1.379-3.011-2.683-4.529-4.058-1.732-1.536-3.464-3.085-5.245-4.568-1.545-1.3-3.128-2.552-4.7-3.8-1.789-1.449-3.621-2.888-5.463-4.272-1.614-1.217-3.251-2.4-4.9-3.573-1.867-1.344-3.744-2.683-5.646-3.962-1.671-1.126-3.368-2.225-5.066-3.3-1.933-1.244-3.861-2.461-5.829-3.639-1.723-1.034-3.464-2.055-5.21-3.046q-3-1.715-6.021-3.334c-1.789-.894-3.573-1.867-5.362-2.762-2.055-1.038-4.128-2.038-6.253-3.019q-2.683-1.276-5.445-2.487c-2.116-.938-4.254-1.785-6.388-2.679-1.841-.75-3.674-1.492-5.533-2.2-2.169-.829-4.368-1.606-6.567-2.365-1.859-.654-3.717-1.3-5.6-1.915-2.234-.724-4.468-1.383-6.763-2.046-1.859-.545-3.726-1.1-5.607-1.6-.72-.2-1.453-.349-2.177-.537a221.758,221.758,0,0,1,57.11,92.736,299.89,299.89,0,0,0,61.3-23.583Zm0,0" transform="translate(32.693 0.758)" fill="#006e33"/>
    <path id="Path_9" data-name="Path 9" d="M0,231.458H107.143A463.6,463.6,0,0,1,125.181,107.83,310.39,310.39,0,0,1,57.368,80.844,249.668,249.668,0,0,0,0,231.458Zm0,0" transform="translate(0 9.421)" fill="#006e33"/>
    <path id="Path_10" data-name="Path 10" d="M225.54,459.117v-115.2a454.155,454.155,0,0,0-92.845,10.93c21.087,58.934,54.61,98.84,92.845,104.272Zm0,0" transform="translate(15.523 40.196)" fill="#006e33"/>
    <path id="Path_11" data-name="Path 11" d="M227.97,231.684H111.921a446.882,446.882,0,0,0,17.593,119.234,470.354,470.354,0,0,1,98.456-11.746Zm0,0" transform="translate(13.093 27.067)" fill="#006e33"/>
    <path id="Path_12" data-name="Path 12" d="M225.54.316c-38.235,5.432-71.758,45.338-92.845,104.272a453.547,453.547,0,0,0,92.845,10.93Zm0,0" transform="translate(15.523)" fill="#006e33"/>
    <path id="Path_13" data-name="Path 13" d="M227.97,120.683a470.681,470.681,0,0,1-98.456-11.741,446.848,446.848,0,0,0-17.593,119.229H227.971Zm0,0" transform="translate(13.093 12.708)" fill="#006e33"/>
    <path id="Path_14" data-name="Path 14" d="M180.5,6.789c-.724.188-1.449.34-2.173.528-1.894.506-3.761,1.069-5.646,1.614-2.243.654-4.468,1.313-6.719,2.029-1.9.615-3.765,1.27-5.633,1.92-2.186.772-4.376,1.54-6.54,2.361-1.867.716-3.709,1.457-5.559,2.217-2.125.894-4.254,1.789-6.353,2.679-1.841.807-3.661,1.654-5.485,2.5-2.064.973-4.119,1.963-6.157,2.993q-2.683,1.368-5.362,2.8-3,1.61-5.96,3.3-2.683,1.5-5.271,3.072c-1.942,1.169-3.861,2.378-5.773,3.573-1.719,1.1-3.425,2.208-5.114,3.351-1.885,1.27-3.744,2.592-5.594,3.914-1.662,1.191-3.316,2.378-4.944,3.578-1.828,1.374-3.573,2.806-5.415,4.232-1.588,1.27-3.19,2.531-4.743,3.844-1.789,1.475-3.486,3-5.21,4.529-1.527,1.361-3.067,2.683-4.56,4.093-1.7,1.584-3.351,3.229-5.009,4.861-1.44,1.422-2.906,2.827-4.32,4.289-.257.271-.506.567-.777.842A300.006,300.006,0,0,0,123.42,99.473,221.666,221.666,0,0,1,180.5,6.789Zm0,0" transform="translate(7.276 0.757)" fill="#006e33"/>
    <path id="Path_15" data-name="Path 15" d="M67.244,386.237c1.662,1.636,3.316,3.29,5.022,4.882,1.484,1.374,3.011,2.679,4.533,4.053,1.732,1.54,3.464,3.085,5.245,4.568,1.545,1.3,3.12,2.548,4.7,3.8,1.789,1.449,3.573,2.888,5.467,4.28,1.61,1.209,3.246,2.378,4.882,3.578,1.867,1.34,3.752,2.679,5.655,3.966,1.671,1.126,3.368,2.225,5.066,3.307,1.933,1.239,3.861,2.456,5.829,3.635q2.585,1.558,5.21,3.05,3,1.715,6.021,3.329c1.785.894,3.573,1.867,5.362,2.762,2.055,1.038,4.128,2.038,6.253,3.024q2.683,1.263,5.445,2.483c2.116.938,4.25,1.785,6.388,2.679,1.841.75,3.674,1.492,5.533,2.2,2.169.833,4.368,1.61,6.567,2.369,1.859.65,3.717,1.3,5.6,1.911,2.234.724,4.468,1.388,6.763,2.046,1.859.545,3.726,1.1,5.6,1.6.724.2,1.457.349,2.182.537a221.8,221.8,0,0,1-57.11-92.74,300.025,300.025,0,0,0-61.229,23.575c.262.266.51.554.772.829,1.34,1.449,2.784,2.854,4.241,4.272Zm0,0" transform="translate(7.28 41.793)" fill="#006e33"/>
    <path id="Path_16" data-name="Path 16" d="M57.368,382.3a310.835,310.835,0,0,1,67.813-26.987,463.583,463.583,0,0,1-18.038-123.628H0A249.706,249.706,0,0,0,57.368,382.3Zm0,0" transform="translate(0 27.067)" fill="#006e33"/>
  </g>
</svg>
