<svg id="masjid" xmlns="http://www.w3.org/2000/svg" width="500" height="500" viewBox="0 0 500 500">
  <path id="Path_16" data-name="Path 16" d="M400.512,440.69h50.622L443.591,320H408.055Zm0,0" transform="translate(31.074 24.828)" fill="#006e33"/>
  <path id="Path_17" data-name="Path 17" d="M315.854,132.332a114.6,114.6,0,0,0-58.19-60.164c10.67,14.582,21.535,35.156,23.638,60.164Zm0,0" transform="translate(19.991 5.599)" fill="#006e33"/>
  <path id="Path_18" data-name="Path 18" d="M200.414,132.744H268.5c-3.288-32.112-24.03-56.052-34.028-65.889C224.487,76.727,203.718,100.754,200.414,132.744Zm0,0" transform="translate(15.549 5.187)" fill="#006e33"/>
  <path id="Path_19" data-name="Path 19" d="M210.526,72.168a114.6,114.6,0,0,0-58.19,60.164h34.552C188.991,107.324,199.847,86.75,210.526,72.168Zm0,0" transform="translate(11.819 5.599)" fill="#006e33"/>
  <path id="Path_20" data-name="Path 20" d="M232.607,60.345l.64-.108.64.108a17.168,17.168,0,0,0,7.974-32.087V0H224.62V28.249a17.172,17.172,0,0,0,7.987,32.1Zm0,0" transform="translate(16.753)" fill="#006e33"/>
  <path id="Path_21" data-name="Path 21" d="M425.75,65.129a53.24,53.24,0,0,0-24.3,33.266h48.609A53.261,53.261,0,0,0,425.75,65.129Zm0,0" transform="translate(31.147 5.053)" fill="#006e33"/>
  <path id="Path_22" data-name="Path 22" d="M400,112h51.724v17.241H400Zm0,0" transform="translate(31.034 8.69)" fill="#006e33"/>
  <path id="Path_23" data-name="Path 23" d="M408,192h34.483v68.966H408Zm0,0" transform="translate(31.655 14.897)" fill="#006e33"/>
  <path id="Path_24" data-name="Path 24" d="M455.128,178.483,466.619,144H387.105L398.6,178.483Zm0,0" transform="translate(30.034 11.172)" fill="#006e33"/>
  <path id="Path_25" data-name="Path 25" d="M462.792,306.483,468.533,272H385.451l5.741,34.483Zm0,0" transform="translate(29.906 21.103)" fill="#006e33"/>
  <path id="Path_26" data-name="Path 26" d="M78.792,306.483,84.533,272H1.449L7.19,306.483Zm0,0" transform="translate(0.112 21.103)" fill="#006e33"/>
  <path id="Path_27" data-name="Path 27" d="M24,192H58.483v68.966H24Zm0,0" transform="translate(1.862 14.897)" fill="#006e33"/>
  <path id="Path_28" data-name="Path 28" d="M0,448H500v17.241H0Zm0,0" transform="translate(0 34.759)" fill="#006e33"/>
  <path id="Path_29" data-name="Path 29" d="M71.128,178.483,82.619,144H3.1L14.6,178.483Zm0,0" transform="translate(0.241 11.172)" fill="#006e33"/>
  <path id="Path_30" data-name="Path 30" d="M145.241,302.728a53.37,53.37,0,0,1,44.733-52.8,36.094,36.094,0,0,0,19.691-10.14l30.4-30.39,30.4,30.4a36.1,36.1,0,0,0,19.691,10.14,53.376,53.376,0,0,1,44.741,52.8V454.345h17.241V195.724H317.655V178.483H334.9v-7.19A115.951,115.951,0,0,0,331.567,144h-183a115.947,115.947,0,0,0-3.33,27.293v7.19H300.414v17.241H128V454.345h17.241Zm0,0" transform="translate(9.931 11.172)" fill="#006e33"/>
  <path id="Path_31" data-name="Path 31" d="M16.512,440.69H67.133L59.59,320H24.055Zm0,0" transform="translate(1.281 24.828)" fill="#006e33"/>
  <path id="Path_32" data-name="Path 32" d="M315.172,447.881V296.264a36.172,36.172,0,0,0-30.329-35.792,53.173,53.173,0,0,1-29.053-14.951l-18.2-18.208L219.38,245.519a53.113,53.113,0,0,1-29.053,14.947A36.2,36.2,0,0,0,160,296.27V447.881h17.241V296.264a19,19,0,0,1,15.941-18.794A70.416,70.416,0,0,0,231.5,257.783l6.086-6.065,6.086,6.07a70.434,70.434,0,0,0,38.334,19.688,19.006,19.006,0,0,1,15.925,18.794V447.881Zm0,0" transform="translate(12.414 17.636)" fill="#006e33"/>
  <path id="Path_33" data-name="Path 33" d="M235.1,272.055a87.617,87.617,0,0,1-41.567,18.959A1.789,1.789,0,0,0,192,292.8V444.409h86.207V292.793a1.789,1.789,0,0,0-1.515-1.785A87.514,87.514,0,0,1,235.1,272.055Zm0,0" transform="translate(14.897 21.108)" fill="#006e33"/>
  <path id="Path_34" data-name="Path 34" d="M41.75,65.129A53.218,53.218,0,0,0,17.449,98.4h48.61A53.261,53.261,0,0,0,41.75,65.129Zm0,0" transform="translate(1.354 5.053)" fill="#006e33"/>
  <path id="Path_35" data-name="Path 35" d="M16,112H67.724v17.241H16Zm0,0" transform="translate(1.241 8.69)" fill="#006e33"/>
</svg>
