<svg xmlns="http://www.w3.org/2000/svg" width="500" height="464.226" viewBox="0 0 500 464.226">
  <g id="park" transform="translate(0 -16.321)">
    <path id="Path_36" data-name="Path 36" d="M480.269,287.243c-5.048-.314-10.495-.474-16.188-.474a383.387,383.387,0,0,0-38.828,2.082L423.959,232.2a55.552,55.552,0,0,0,51.955-96.8,48.182,48.182,0,0,0-31.822-53.818A48.124,48.124,0,1,0,351,64.443q0,.739.023,1.481a48.122,48.122,0,0,0-30.342,80.306,55.539,55.539,0,0,0,57.341,92.357l-1.338,57.7c-29.943,5.995-65,15.449-105.1,30.1A1028.014,1028.014,0,0,0,92.808,412.5c-21.6,13.231-40.138,25.913-53.608,36.681-20.1,16.064-21.067,21.452-20.4,25.242.517,2.916,2.977,6.033,8.336,6.033H476.972a19.2,19.2,0,0,0,1.926.088,19.787,19.787,0,0,0,11.681-3.675c3.483-2.6,7.635-7.849,7.635-18.055V305.74C498.215,297.812,495.1,288.167,480.269,287.243Z" transform="translate(1.786 0)" fill="#006e33"/>
    <path id="Path_37" data-name="Path 37" d="M249.381,297.949a8.757,8.757,0,0,0,5.383-7.261,6.726,6.726,0,0,0-3.068-6.528C226.08,268.2,186.535,254.08,146.742,244.15l-1.09-47.756A42.917,42.917,0,0,0,184.57,121.5a37.4,37.4,0,0,0-23.524-40.473,37.363,37.363,0,1,0-72.755-12.1A37.363,37.363,0,0,0,65.1,130.125a42.9,42.9,0,0,0,43.352,71.055l-.8,34.573c-23.4-4.2-45.215-6.564-62.364-6.564C15.23,229.188,0,236.112,0,249.765v169c0,6.639,4.022,9.61,8.01,9.61a10.618,10.618,0,0,0,6.465-2.5c1.913-1.584,3.757-3.058,5.5-4.452C34.518,409.8,54.244,396.286,77.02,382.34a1066.256,1066.256,0,0,1,172.361-84.391Z" transform="translate(0 1.47)" fill="#006e33"/>
  </g>
</svg>
